<?xml version="1.0" encoding="UTF-8" standalone="no"?>
<!-- Created with Inkscape (http://www.inkscape.org/) -->

<svg
   xmlns:dc="http://purl.org/dc/elements/1.1/"
   xmlns:cc="http://creativecommons.org/ns#"
   xmlns:rdf="http://www.w3.org/1999/02/22-rdf-syntax-ns#"
   xmlns:svg="http://www.w3.org/2000/svg"
   xmlns="http://www.w3.org/2000/svg"
   xmlns:sodipodi="http://sodipodi.sourceforge.net/DTD/sodipodi-0.dtd"
   xmlns:inkscape="http://www.inkscape.org/namespaces/inkscape"
   width="124"
   height="44"
   viewBox="0 0 32.808334 11.641667"
   version="1.1"
   id="svg1650"
   sodipodi:docname="logotry2.svg"
   inkscape:version="0.92.4 (5da689c313, 2019-01-14)">
  <defs
     id="defs1644" />
  <sodipodi:namedview
     id="base"
     pagecolor="#ffffff"
     bordercolor="#666666"
     borderopacity="1.0"
     inkscape:pageopacity="0.0"
     inkscape:pageshadow="2"
     inkscape:zoom="5.6568542"
     inkscape:cx="73.983203"
     inkscape:cy="-16.408129"
     inkscape:document-units="mm"
     inkscape:current-layer="layer1"
     showgrid="false"
     inkscape:snap-global="false"
     showguides="true"
     inkscape:guide-bbox="true"
     inkscape:window-width="1920"
     inkscape:window-height="976"
     inkscape:window-x="-8"
     inkscape:window-y="-8"
     inkscape:window-maximized="1"
     units="px" />
  <metadata
     id="metadata1647">
    <rdf:RDF>
      <cc:Work
         rdf:about="">
        <dc:format>image/svg+xml</dc:format>
        <dc:type
           rdf:resource="http://purl.org/dc/dcmitype/StillImage" />
        <dc:title></dc:title>
      </cc:Work>
    </rdf:RDF>
  </metadata>
  <g
     inkscape:label="Layer 1"
     inkscape:groupmode="layer"
     id="layer1"
     style="display:inline"
     transform="translate(0,-285.35833)">
    <path
       d="m 11.892848,293.94018 c 0,0.0668 -0.005,0.11932 -0.0142,0.15816 -0.009,0.0385 -0.0228,0.0673 -0.0409,0.0854 -0.0181,0.0182 -0.0459,0.0358 -0.082,0.0515 -0.0365,0.016 -0.0784,0.0293 -0.12525,0.0399 -0.0469,0.0104 -0.096,0.0187 -0.14867,0.0258 -0.0528,0.007 -0.10428,0.0105 -0.15698,0.0105 -0.16035,0 -0.29735,-0.0211 -0.41093,-0.0632 -0.11357,-0.0422 -0.20767,-0.10624 -0.28106,-0.19201 -0.073,-0.0852 -0.12578,-0.19433 -0.15923,-0.3255 -0.0333,-0.13108 -0.0492,-0.28578 -0.0492,-0.46372 v -1.80084 h -0.43445 c -0.0339,0 -0.0625,-0.0185 -0.0831,-0.055 -0.0203,-0.0361 -0.0304,-0.0961 -0.0304,-0.17919 0,-0.0433 0.002,-0.0797 0.008,-0.1089 0.006,-0.0304 0.0133,-0.0553 0.0223,-0.075 0.009,-0.019 0.0221,-0.033 0.0363,-0.041 0.015,-0.009 0.0316,-0.0117 0.0503,-0.0117 h 0.4309 v -0.73305 c 0,-0.0164 0.004,-0.0315 0.0117,-0.0445 0.008,-0.0139 0.0235,-0.0255 0.0457,-0.0363 0.0211,-0.0102 0.0503,-0.0175 0.0878,-0.0222 0.0363,-0.005 0.0819,-0.007 0.13807,-0.007 0.0574,0 0.10418,0.002 0.14053,0.007 0.0374,0.005 0.0656,0.0117 0.0867,0.0222 0.021,0.0106 0.0349,0.0225 0.0445,0.0363 0.009,0.0131 0.014,0.0282 0.014,0.0445 v 0.73305 h 0.78682 c 0.0188,0 0.0342,0.003 0.0481,0.0117 0.013,0.008 0.0255,0.0224 0.0351,0.041 0.0104,0.0201 0.0175,0.0446 0.0222,0.075 0.005,0.0292 0.007,0.0656 0.007,0.1089 0,0.0831 -0.0102,0.14309 -0.0305,0.17919 -0.0206,0.0365 -0.048,0.055 -0.082,0.055 h -0.78682 v 1.71772 c 0,0.21189 0.0319,0.37218 0.0936,0.48007 0.0624,0.1088 0.17461,0.16275 0.33611,0.16275 0.0515,0 0.0984,-0.005 0.13938,-0.0152 0.041,-0.0106 0.0772,-0.021 0.10889,-0.0327 0.0317,-0.0117 0.0586,-0.0221 0.082,-0.0329 0.0224,-0.0103 0.0433,-0.0151 0.0608,-0.0151 0.0118,0 0.0224,0.002 0.0328,0.008 0.01,0.006 0.0176,0.0164 0.0235,0.0329 0.006,0.0163 0.0104,0.0374 0.0151,0.0655 0.005,0.027 0.007,0.062 0.007,0.10303 z m 2.88616,-0.24587 c 0,0.0387 -10e-4,0.0726 -0.003,0.10066 -0.003,0.0293 -0.006,0.0528 -0.0118,0.0726 -0.006,0.0199 -0.0128,0.0364 -0.0211,0.0516 -0.008,0.0152 -0.0263,0.0369 -0.055,0.0655 -0.0287,0.0288 -0.0769,0.0651 -0.14515,0.10774 -0.0687,0.0429 -0.14656,0.0806 -0.23189,0.11357 -0.0868,0.0337 -0.17929,0.0603 -0.27995,0.0808 -0.10065,0.0206 -0.20484,0.0317 -0.31257,0.0317 -0.22244,0 -0.41886,-0.037 -0.59009,-0.11011 -0.17189,-0.0733 -0.31579,-0.17944 -0.43095,-0.31963 -0.11551,-0.14072 -0.20388,-0.31383 -0.26453,-0.51761 -0.0611,-0.20484 -0.0914,-0.44025 -0.0914,-0.70834 0,-0.30337 0.0368,-0.56466 0.11117,-0.78338 0.0742,-0.21801 0.17654,-0.39729 0.30565,-0.53623 0.12958,-0.13966 0.28188,-0.24316 0.45667,-0.31028 0.17529,-0.0675 0.36528,-0.10074 0.56906,-0.10074 0.0984,0 0.19298,0.01 0.28559,0.0282 0.0936,0.0182 0.17838,0.0414 0.25648,0.0714 0.0776,0.0298 0.14708,0.0651 0.20724,0.10427 0.0604,0.0393 0.10543,0.0726 0.13239,0.0994 0.028,0.0282 0.0474,0.05 0.0573,0.0657 0.0101,0.0159 0.0191,0.035 0.0257,0.0574 0.006,0.0209 0.0105,0.0457 0.0129,0.0738 0.002,0.027 0.004,0.062 0.004,0.10306 0,0.089 -0.01,0.15152 -0.0304,0.18734 -0.0204,0.0354 -0.0457,0.0527 -0.0762,0.0527 -0.0339,0 -0.0734,-0.0191 -0.11816,-0.0574 -0.0443,-0.0378 -0.10075,-0.0796 -0.16974,-0.12531 -0.0692,-0.0455 -0.15248,-0.0873 -0.24952,-0.12524 -0.0974,-0.038 -0.21189,-0.0574 -0.34422,-0.0574 -0.27286,0 -0.48222,0.10437 -0.62762,0.31389 -0.14487,0.20855 -0.21776,0.51168 -0.21776,0.90863 0,0.19784 0.0181,0.37251 0.0562,0.52216 0.0379,0.14886 0.0938,0.27401 0.16743,0.37467 0.0727,0.0994 0.16275,0.17451 0.26934,0.22368 0.10658,0.0492 0.22836,0.0738 0.36537,0.0738 0.13108,0 0.24587,-0.0211 0.34422,-0.0621 0.0983,-0.041 0.18237,-0.087 0.25526,-0.13691 0.0723,-0.0496 0.13373,-0.0934 0.18265,-0.13354 0.0494,-0.0406 0.0866,-0.0609 0.1147,-0.0609 0.0153,0 0.0293,0.005 0.041,0.0141 0.0117,0.009 0.0212,0.0245 0.0293,0.0456 0.008,0.0222 0.014,0.0492 0.0175,0.0831 0.003,0.0328 0.005,0.0725 0.005,0.11825 z m 11.58987,0.22933 c 0,0.16285 -0.0269,0.27049 -0.0809,0.32435 -0.0537,0.0539 -0.15098,0.0808 -0.29258,0.0808 -0.13825,0 -0.23308,-0.027 -0.28577,-0.0797 -0.0526,-0.0526 -0.0785,-0.15798 -0.0785,-0.3161 0,-0.16276 0.027,-0.27046 0.0808,-0.32435 0.0538,-0.0539 0.15098,-0.0808 0.29267,-0.0808 0.13816,0 0.23298,0.0258 0.28578,0.0785 0.0515,0.0526 0.0784,0.1592 0.0784,0.31723 z m 2.84876,-2.59701 c 0,0.0503 -0.001,0.0925 -0.004,0.12646 -0.002,0.0339 -0.007,0.0608 -0.0141,0.0808 -0.006,0.0199 -0.0151,0.034 -0.0257,0.0445 -0.009,0.0106 -0.0234,0.0152 -0.0421,0.0152 -0.0188,0 -0.041,-0.005 -0.0668,-0.0152 -0.0269,-0.0105 -0.0562,-0.0211 -0.089,-0.0304 -0.0328,-0.0106 -0.0703,-0.0199 -0.11117,-0.0293 -0.041,-0.009 -0.0855,-0.0141 -0.13355,-0.0141 -0.0574,0 -0.11357,0.0117 -0.16867,0.034 -0.0538,0.0234 -0.11233,0.0608 -0.17212,0.1147 -0.0608,0.0527 -0.12408,0.12293 -0.19076,0.20961 -0.0657,0.0878 -0.13941,0.19442 -0.2191,0.32088 v 2.03152 c 0,0.0188 -0.005,0.0339 -0.014,0.0468 -0.009,0.0117 -0.0234,0.0234 -0.0445,0.0328 -0.021,0.008 -0.0492,0.0152 -0.0866,0.0199 -0.0363,0.005 -0.0832,0.007 -0.14053,0.007 -0.0562,0 -0.10187,-0.002 -0.13822,-0.007 -0.0374,-0.005 -0.0666,-0.0118 -0.0877,-0.0199 -0.0223,-0.009 -0.0375,-0.0211 -0.0456,-0.0328 -0.008,-0.0129 -0.0118,-0.0281 -0.0118,-0.0468 v -3.08889 c 0,-0.0187 0.004,-0.0339 0.0105,-0.0468 0.007,-0.0118 0.02,-0.0235 0.0411,-0.0341 0.021,-0.0105 0.0468,-0.0175 0.0796,-0.021 0.0316,-0.004 0.0749,-0.005 0.12761,-0.005 0.0503,0 0.0925,0.001 0.12525,0.005 0.034,0.003 0.0598,0.0104 0.0784,0.021 0.0176,0.0106 0.0317,0.0223 0.0399,0.0341 0.007,0.0128 0.0118,0.028 0.0118,0.0468 v 0.44965 c 0.0842,-0.12415 0.16377,-0.22481 0.23757,-0.30328 0.0749,-0.0772 0.14521,-0.13938 0.21083,-0.18387 0.0667,-0.0444 0.13223,-0.0749 0.19672,-0.0925 0.0655,-0.0175 0.13108,-0.0257 0.19785,-0.0257 0.0293,0 0.0632,0.001 0.10066,0.005 0.0374,0.004 0.0773,0.0106 0.11832,0.0187 0.0409,0.009 0.0784,0.0199 0.11117,0.0317 0.0328,0.0117 0.0563,0.0221 0.0702,0.0339 0.0142,0.0117 0.0234,0.0223 0.027,0.0328 0.005,0.0105 0.009,0.0234 0.0129,0.0386 0.004,0.0165 0.006,0.0399 0.007,0.0702 0.001,0.0317 0.001,0.0725 0.001,0.12534 z m 3.28561,2.88863 c 0,0.0188 -0.004,0.0339 -0.0117,0.0468 -0.008,0.0117 -0.0223,0.0234 -0.0433,0.0328 -0.02,0.008 -0.0469,0.0152 -0.0808,0.0199 -0.0329,0.005 -0.0738,0.007 -0.12191,0.007 -0.0515,0 -0.0948,-0.002 -0.12762,-0.007 -0.0339,-0.005 -0.0597,-0.0118 -0.0796,-0.0199 -0.0188,-0.009 -0.0327,-0.0211 -0.0386,-0.0328 -0.007,-0.0129 -0.0106,-0.0281 -0.0106,-0.0468 v -0.40871 c -0.17681,0.19441 -0.35008,0.33495 -0.52219,0.42393 -0.17095,0.089 -0.34546,0.13346 -0.52104,0.13346 -0.20615,0 -0.37941,-0.034 -0.51997,-0.10303 -0.14044,-0.0679 -0.25523,-0.1616 -0.34191,-0.27985 -0.0866,-0.1171 -0.14868,-0.25411 -0.18724,-0.41093 -0.0375,-0.15698 -0.0562,-0.34784 -0.0562,-0.57152 v -1.87224 c 0,-0.0187 0.003,-0.0339 0.0117,-0.0468 0.008,-0.0118 0.0234,-0.0235 0.0468,-0.0341 0.0223,-0.0105 0.0527,-0.0175 0.0891,-0.021 0.0363,-0.004 0.0819,-0.005 0.13692,-0.005 0.055,0 0.10065,0.001 0.137,0.005 0.0363,0.003 0.0655,0.0104 0.0878,0.021 0.0211,0.0106 0.0364,0.0223 0.0456,0.0341 0.009,0.0128 0.0141,0.028 0.0141,0.0468 v 1.79847 c 0,0.18041 0.0128,0.32557 0.0398,0.43446 0.0257,0.10886 0.0657,0.20137 0.11942,0.27754 0.0539,0.0772 0.12293,0.13701 0.20502,0.17919 0.0819,0.0421 0.17794,0.0632 0.288,0.0632 0.14168,0 0.28337,-0.0503 0.4239,-0.15108 0.1416,-0.10066 0.29027,-0.24818 0.44843,-0.4426 v -2.15913 c 0,-0.0187 0.004,-0.0339 0.0117,-0.0468 0.008,-0.0118 0.0234,-0.0235 0.0468,-0.0341 0.0223,-0.0105 0.0516,-0.0175 0.0868,-0.021 0.0363,-0.004 0.0819,-0.005 0.13932,-0.005 0.055,0 0.10072,0.001 0.137,0.005 0.0363,0.003 0.0655,0.0104 0.0855,0.021 0.021,0.0106 0.0363,0.0223 0.0468,0.0341 0.0106,0.0128 0.0152,0.028 0.0152,0.0468 z m -12.02645,-0.0304 c 0,0.0221 -0.007,0.0421 -0.021,0.0597 -0.0129,0.0175 -0.0363,0.0316 -0.0679,0.0433 -0.0329,0.0104 -0.0762,0.0199 -0.13126,0.0258 -0.055,0.006 -0.12522,0.008 -0.20952,0.008 -0.0878,0 -0.15929,-0.002 -0.2143,-0.008 -0.055,-0.006 -0.0995,-0.0153 -0.13223,-0.0258 -0.0329,-0.0117 -0.0564,-0.0258 -0.0692,-0.0433 -0.0128,-0.0176 -0.0188,-0.0376 -0.0188,-0.0597 v -1.81492 c 0,-0.10312 -0.009,-0.19679 -0.0293,-0.28106 -0.0188,-0.0855 -0.0492,-0.15807 -0.089,-0.21776 -0.0398,-0.0608 -0.0901,-0.10774 -0.14989,-0.14169 -0.0608,-0.0328 -0.13223,-0.0492 -0.2166,-0.0492 -0.10306,0 -0.20725,0.0398 -0.31143,0.12053 -0.10543,0.0796 -0.21891,0.1967 -0.34185,0.34893 v 2.03514 c 0,0.0221 -0.007,0.0421 -0.0212,0.0597 -0.0129,0.0175 -0.0363,0.0316 -0.0702,0.0433 -0.0328,0.0104 -0.0773,0.0199 -0.13242,0.0258 -0.055,0.006 -0.12409,0.008 -0.20599,0.008 -0.0854,0 -0.15573,-0.002 -0.21083,-0.008 -0.055,-0.006 -0.0995,-0.0153 -0.13223,-0.0258 -0.034,-0.0117 -0.0574,-0.0258 -0.0703,-0.0433 -0.014,-0.0176 -0.021,-0.0376 -0.021,-0.0597 v -1.81491 c 0,-0.10313 -0.009,-0.19679 -0.0293,-0.28107 -0.0188,-0.0855 -0.048,-0.15807 -0.0877,-0.21776 -0.0387,-0.0608 -0.0891,-0.10774 -0.14989,-0.14168 -0.0621,-0.0328 -0.1347,-0.0492 -0.21661,-0.0492 -0.10543,0 -0.20961,0.0398 -0.31498,0.12053 -0.10549,0.0796 -0.21897,0.19669 -0.33963,0.34893 v 2.03513 c 0,0.0221 -0.007,0.0421 -0.021,0.0597 -0.0128,0.0175 -0.0363,0.0316 -0.0703,0.0433 -0.0327,0.0104 -0.0772,0.0199 -0.13108,0.0257 -0.055,0.006 -0.12524,0.008 -0.20961,0.008 -0.0843,0 -0.15452,-0.002 -0.20952,-0.008 -0.0538,-0.006 -0.0983,-0.0153 -0.13127,-0.0257 -0.0339,-0.0118 -0.0573,-0.0258 -0.0701,-0.0433 -0.0141,-0.0176 -0.0212,-0.0376 -0.0212,-0.0597 v -3.06305 c 0,-0.0223 0.006,-0.0422 0.0177,-0.0598 0.0105,-0.0175 0.0316,-0.0316 0.0608,-0.0434 0.0304,-0.0105 0.0679,-0.0199 0.11482,-0.0258 0.0467,-0.006 0.1065,-0.008 0.17679,-0.008 0.0738,0 0.13339,0.002 0.18141,0.008 0.048,0.006 0.0855,0.0153 0.11251,0.0258 0.0257,0.0118 0.0444,0.0258 0.0562,0.0434 0.0117,0.0176 0.0176,0.0375 0.0176,0.0598 v 0.35352 c 0.16859,-0.18275 0.33714,-0.31851 0.50573,-0.40986 0.16867,-0.0913 0.34431,-0.13692 0.52696,-0.13692 0.12649,0 0.24004,0.0128 0.34079,0.0397 0.10066,0.0258 0.18961,0.0633 0.26924,0.11249 0.0784,0.0492 0.14637,0.10764 0.20378,0.17557 0.0574,0.0692 0.10533,0.14524 0.14396,0.22952 0.0914,-0.0983 0.1816,-0.18262 0.26934,-0.25286 0.0878,-0.0703 0.17566,-0.12877 0.26119,-0.17336 0.0854,-0.0445 0.17086,-0.0772 0.25753,-0.0983 0.0855,-0.0222 0.17211,-0.0327 0.26226,-0.0327 0.20253,0 0.37464,0.0339 0.51405,0.10303 0.13928,0.0679 0.2517,0.16159 0.33722,0.27975 0.0866,0.1172 0.14752,0.25536 0.18382,0.41339 0.0363,0.15817 0.055,0.32435 0.055,0.50123 z m 1.71073,0 c 0,0.0221 -0.007,0.0421 -0.0211,0.0597 -0.0129,0.0175 -0.0363,0.0316 -0.0703,0.0433 -0.0327,0.0104 -0.0773,0.0199 -0.13108,0.0258 -0.055,0.006 -0.12531,0.008 -0.20962,0.008 -0.0843,0 -0.1546,-0.002 -0.20961,-0.008 -0.0538,-0.006 -0.0984,-0.0153 -0.13117,-0.0258 -0.0339,-0.0117 -0.0573,-0.0258 -0.0701,-0.0433 -0.0142,-0.0176 -0.0212,-0.0376 -0.0212,-0.0597 v -3.05606 c 0,-0.0223 0.007,-0.0422 0.0212,-0.0598 0.0128,-0.0175 0.0362,-0.0327 0.0701,-0.0444 0.0328,-0.0129 0.0774,-0.0223 0.13117,-0.0294 0.055,-0.007 0.12534,-0.0105 0.20961,-0.0105 0.0843,0 0.15461,0.004 0.20962,0.0105 0.0538,0.007 0.0984,0.0165 0.13108,0.0294 0.0341,0.0117 0.0574,0.0269 0.0703,0.0444 0.0141,0.0176 0.0211,0.0375 0.0211,0.0598 z m 0.0702,-4.10292 c 0,0.17442 -0.035,0.29389 -0.10649,0.36067 -0.0714,0.0668 -0.20263,0.0995 -0.3958,0.0995 -0.19429,0 -0.32671,-0.0316 -0.39339,-0.096 -0.068,-0.0644 -0.10191,-0.18026 -0.10191,-0.34653 0,-0.17451 0.0352,-0.29508 0.10534,-0.363 0.0692,-0.0668 0.2015,-0.10072 0.39705,-0.10072 0.19192,0 0.32309,0.0328 0.39226,0.0983 0.069,0.0645 0.10294,0.18035 0.10294,0.34777 z m 2.75874,1.32546 c 0,0.082 -0.002,0.14989 -0.007,0.20253 -0.005,0.0527 -0.0117,0.0937 -0.0199,0.12303 -0.009,0.0293 -0.0222,0.0503 -0.0363,0.062 -0.0153,0.0117 -0.034,0.0164 -0.0574,0.0164 -0.0175,0 -0.0387,-0.004 -0.0621,-0.0118 -0.0222,-0.008 -0.0479,-0.0163 -0.0772,-0.0257 -0.0282,-0.009 -0.0597,-0.0176 -0.0938,-0.0258 -0.035,-0.008 -0.0725,-0.0117 -0.11349,-0.0117 -0.0481,0 -0.096,0.009 -0.14399,0.0292 -0.048,0.02 -0.0984,0.0493 -0.1499,0.0914 -0.0516,0.041 -0.10543,0.096 -0.16159,0.1639 -0.0562,0.0691 -0.11598,0.15336 -0.18035,0.25411 v 1.9098 c 0,0.0221 -0.007,0.0421 -0.0211,0.0597 -0.0129,0.0175 -0.0363,0.0316 -0.0703,0.0433 -0.0327,0.0104 -0.0772,0.0199 -0.13108,0.0257 -0.0551,0.006 -0.12533,0.008 -0.20961,0.008 -0.0843,0 -0.15454,-0.002 -0.20965,-0.008 -0.0538,-0.006 -0.0983,-0.0153 -0.13113,-0.0257 -0.0339,-0.0118 -0.0573,-0.0258 -0.0702,-0.0433 -0.014,-0.0176 -0.0211,-0.0376 -0.0211,-0.0597 v -3.06305 c 0,-0.0223 0.006,-0.0422 0.0176,-0.0598 0.0105,-0.0175 0.0316,-0.0316 0.0609,-0.0433 0.0304,-0.0105 0.0678,-0.0199 0.1147,-0.0258 0.0469,-0.006 0.10649,-0.008 0.17688,-0.008 0.0738,0 0.13348,0.002 0.18141,0.008 0.0481,0.006 0.0855,0.0153 0.11251,0.0258 0.0258,0.0117 0.0444,0.0258 0.0562,0.0433 0.0117,0.0176 0.0176,0.0375 0.0176,0.0598 v 0.38163 c 0.0796,-0.11479 0.15567,-0.20837 0.22599,-0.28222 0.0714,-0.0737 0.13919,-0.13348 0.20254,-0.17673 0.0643,-0.0433 0.12876,-0.0738 0.19317,-0.0902 0.0632,-0.0176 0.12761,-0.0258 0.19201,-0.0258 0.0293,0 0.062,0.001 0.096,0.005 0.034,0.003 0.0703,0.009 0.10649,0.0175 0.0362,0.008 0.0692,0.0175 0.0961,0.0269 0.0281,0.0106 0.048,0.0212 0.0608,0.0328 0.0118,0.0117 0.0211,0.0246 0.0269,0.0374 0.006,0.0141 0.0106,0.0329 0.0152,0.0575 0.005,0.0235 0.008,0.0597 0.0106,0.10765 0.002,0.048 0.003,0.11251 0.003,0.19442"
       style="fill:#e3000f;fill-opacity:1;fill-rule:nonzero;stroke:none;stroke-width:0.3120178"
       id="path73"
       inkscape:connector-curvature="0" />
    <path
       d="m 4.298608,285.70627 0.24881,0.40799 0.443,0.25888 0.43305,0.97328 -0.0484,0.31935 0.15161,0.13189 0.24895,0.0232 0.0816,-0.24961 0.23926,-0.25305 -0.0598,-0.42958 0.27489,-0.34615 0.19204,0.54038 -0.19644,0.47629 -0.30207,0.17707 -0.067,0.10082 0.2464,0.0224 0.31894,0.16044 0.16494,-0.30029 0.39014,-0.29832 0.323,-0.12303 0.0739,-0.17292 0.35919,-0.0435 -0.20521,0.19847 -0.11985,0.28029 -0.29142,0.25208 -0.32397,0.0593 -0.23323,0.25226 0.37024,0.42516 0.0964,0.35483 0.44216,-0.0421 0.3821,0.27304 0.35704,0.0137 0.14974,0.18282 -0.20644,-0.031 -0.3751,0.12824 -0.33458,-0.18412 -0.26215,0.0886 -0.1631,-0.0292 -0.0834,0.50687 -0.59817,0.44328 -0.74815,0.22297 -0.3621,-0.10914 -0.27012,-0.26859 -0.19832,-0.11323 -0.27629,-0.047 -0.19679,0.11657 -0.18864,0.27648 -0.19398,0.006 -0.15423,-0.0621 0.26958,-0.10134 0.24197,-0.3996 0.28013,-0.0801 0.009,-0.19514 -0.0361,-0.2044 -0.36032,0.0319 -0.20696,0.16141 -0.29551,-0.008 0.0358,-0.1269 0.28269,-0.1479 0.17485,-0.22172 0.24818,0.0195 0.15529,0.054 0.0689,-0.23136 0.62585,-0.43773 0.41215,-0.0137 0.47283,0.18051 0.28328,0.33432 -0.0197,0.343 -0.41623,0.66813 -0.26728,0.0552 -0.50441,-0.2904 -0.058,-0.48581 0.19748,-0.30338 0.49779,0.0195 -0.1684,0.53218 -0.0793,-0.0403 -0.0929,-0.28965 -0.1468,0.12179 0.0271,0.35361 0.26552,0.20608 0.10303,0.008 0.17804,-0.14929 0.14665,-0.54519 -0.16743,-0.388 -0.4874,-0.0957 -0.57802,0.35439 -0.15697,0.3445 0.0859,0.19732 0.0871,0.34653 0.30338,0.12577 0.36634,0.23891 0.30328,-0.0215 0.73321,-0.46637 0.19495,-0.46797 -0.10197,-0.51707 -0.32637,-0.36943 -0.42366,-0.26756 -0.44073,-0.088 -0.42137,0.20182 -0.20634,0.20927 -0.43186,0.21988 -0.50416,-0.29717 -0.38747,-0.0555 -0.30109,-0.39598 0.21591,0.0351 0.1439,0.15089 0.30382,-0.0401 0.26693,0.0594 0.11691,0.27243 0.20131,0.11841 0.16016,-0.14771 -0.0141,-0.13061 -0.1562,-0.16849 -0.15176,-0.3201 -0.20803,-0.12278 -0.11198,-0.26453 3.2e-4,-0.31707 0.29258,0.44834 0.33929,0.19482 -0.008,0.27189 0.14293,0.11807 0.0692,0.11217 0.17965,-0.29233 -0.032,-0.37314 -0.23685,-0.2986 -0.0959,-0.6998 -0.4216,-0.42328 0.0112,-0.37829 z m -1.5225,6.18007 -0.3307,0.78382 -0.35892,-0.78382 h -0.70641 v 1.72433 l 0.34397,-3.1e-4 v -0.97706 l 0.43514,0.97706 h 0.29514 l 0.38837,-0.95602 v 0.95636 l 0.61037,-3.2e-4 v -1.72399 h -0.67696 z m 3.65236,0.97689 c -0.0488,0 -0.08,-0.005 -0.11991,-0.013 v -0.61115 c 0.0377,-0.0105 0.0643,-0.0132 0.11098,-0.0132 0.1709,0 0.2641,0.0656 0.2641,0.27951 0,0.24028 -0.0532,0.35785 -0.25517,0.35785 z m 0.0643,-0.97689 h -0.79468 v 1.72399 h 0.61046 c 0,0 0,-0.31611 -2.9e-4,-0.42394 0.0503,0.0108 0.11154,0.0165 0.19563,0.0165 0.39935,0 0.82557,-0.20643 0.82557,-0.72612 0,-0.4363 -0.33071,-0.59047 -0.83671,-0.59047 z m -1.57894,0 -0.57923,0.94522 v -0.94522 h -0.58385 v 1.72399 h 0.51274 l 0.58163,-0.96981 7.2e-4,0.96981 h 0.58531 v -1.72399 h -0.51714 z"
       style="fill:#e3000f;fill-opacity:1;fill-rule:evenodd;stroke:none;stroke-width:0.3120178"
       id="path75"
       inkscape:connector-curvature="0"
       sodipodi:nodetypes="cccccccccccccccccccccccccccccccccccccccccccccccccccccccccccccccccccccccccccccccccccccccccccccccccccccccccccccccccccccccccccccccccccccccccccccccccccsscccccccsscccccccccccccc" />
    <text
       style="font-variant:normal;font-weight:bold;font-size:1.92265391px;font-family:Calibri;-inkscape-font-specification:Calibri-Bold;writing-mode:lr-tb;fill:#e3000f;fill-opacity:1;fill-rule:nonzero;stroke:none;stroke-width:0.3120178"
       id="text109"
       x="10.313253"
       y="296.31128">
      <tspan
         x="10.313253 11.046453 12.080847 13.113317 13.776709 14.811102 15.762808 17.131752 18.20266 18.637184 19.553223 20.587616 21.958466 22.985161 23.996483 24.9655 25.887619 26.693214 27.127739 28.380989 29.680702 31.361099"
         y="296.31128"
         sodipodi:role="line"
         id="tspan107"
         style="stroke-width:0.3120178">торговый комплекс ДОМА</tspan>
    </text>
    <path
       style="display:inline;fill:none;stroke:#e3000f;stroke-width:0.44;stroke-miterlimit:4;stroke-dasharray:none;stroke-opacity:1"
       id="path1664"
       sodipodi:type="arc"
       sodipodi:cx="4.2963748"
       sodipodi:cy="292.58423"
       sodipodi:rx="3.7712512"
       sodipodi:ry="3.7691979"
       sodipodi:start="5.6025069"
       sodipodi:end="4.5204028"
       d="m 7.2271874,290.2122 a 3.7712512,3.7691979 0 0 1 0.1394215,4.56081 3.7712512,3.7691979 0 0 1 -4.360078,1.35311 3.7712512,3.7691979 0 0 1 -2.46978179,-3.83762 3.7712512,3.7691979 0 0 1 3.04003719,-3.40422"
       sodipodi:open="true" />
  </g>
  <g
     inkscape:groupmode="layer"
     id="layer2"
     inkscape:label="Layer 2"
     style="display:inline"
     transform="translate(0,-285.35833)" />
</svg>
