<svg width="301" height="211" viewBox="0 0 301 211" fill="none" xmlns="http://www.w3.org/2000/svg">
<rect x="3.95267" y="106.376" width="28.4151" height="26.5988" fill="white" stroke="#FF3300" stroke-width="1.5"/>
<rect x="192.51" y="40.4783" width="4.55025" height="13.2184" fill="white" stroke="#FF3300" stroke-width="1.5"/>
<rect x="207.634" y="40.4783" width="42.8685" height="28.6058" fill="white" stroke="#FF3300" stroke-width="1.5"/>
<rect x="250.994" y="41.8176" width="19.3397" height="27.2678" fill="white" stroke="#FF3300" stroke-width="1.5"/>
<rect x="34.5309" y="160.569" width="19.3397" height="28.2713" fill="white" stroke="#FF3300" stroke-width="1.5"/>
<rect x="54" y="143" width="15.1256" height="10.7043" fill="white"/>
<rect x="125" y="143" width="12.7727" height="10.7043" fill="white"/>
<path d="M14.3681 162.911H34.0397V188.588V189.338H34.7897H53.871V199.545H34.7897H34.0397V200.295V210.25H9.99417V180.484L14.3681 162.911Z" fill="white" stroke="#FF3300" stroke-width="1.5"/>
<rect x="54.3615" y="160.569" width="28.4151" height="49.6799" fill="white" stroke="#FF3300" stroke-width="1.5"/>
<rect x="83.269" y="160.569" width="26.0622" height="49.6799" fill="white" stroke="#FF3300" stroke-width="1.5"/>
<rect x="109.822" y="160.569" width="19.6759" height="36.634" fill="white" stroke="#FF3300" stroke-width="1.5"/>
<rect x="241.92" y="99.0208" width="15.9785" height="29.6093" fill="white" stroke="#FF3300" stroke-width="1.5"/>
<path d="M293.282 129.125L297.457 161.41H212.676V126.114H227.142V128.375V129.125H227.892H264.53H293.282Z" fill="white" stroke="#FF3300" stroke-width="1.5"/>
<path d="M259.856 186.823L258.226 189.508H251.667V161.906H268.4H297.665L299.754 175.817L299.754 175.818L300.217 178.926L293.528 189.508H264.942L260.937 186.605L260.278 186.127L259.856 186.823Z" fill="white" stroke="#FF3300" stroke-width="1.5"/>
<rect x="254.615" y="77" width="20.8397" height="9.03174" fill="white"/>
<path d="M203.109 133.729V136.324H196.542V126.37V82.2957H219.243V125.62H212.934H212.184V126.37V132.979H203.859H203.109V133.729Z" fill="white" stroke="#FF3300" stroke-width="1.5"/>
<path d="M242.131 98.5246H250.504V82.2957H219.736V125.62H226.757H227.507V126.37V128.63H241.381V99.2746V98.5246H242.131Z" fill="white" stroke="#FF3300" stroke-width="1.5"/>
<rect x="34.5309" y="200.042" width="19.3397" height="10.2078" fill="white" stroke="#FF3300" stroke-width="1.5"/>
<rect x="271.386" y="41.6309" width="9.0614" height="24.8748" fill="white" stroke="#FF3300" stroke-width="1.5"/>
<path d="M293.069 41.8176L298.98 50.9383H294.598H293.295L293.949 52.0646L299.698 61.9771H295.558H294.356L294.884 63.0567L299.798 73.0995H286.048L284.277 66.5456L284.128 65.9912H283.553H281.582V41.8176H293.069Z" fill="white" stroke="#FF3300" stroke-width="1.5"/>
<path d="M294.632 99.0208L297.22 107.902L293.582 106.943L292.362 106.622L292.663 107.847L295.247 118.381L293.264 128.63H258.39V123.142V99.0208H294.632Z" fill="white" stroke="#FF3300" stroke-width="1.5"/>
<path d="M0 0H152.937L152.769 100.946H124.534V132.8H33.4549V105.629H0V0Z" fill="white"/>
<path d="M143.951 113.321V136.321H124.275V100.691H152.018V112.571H144.701H143.951V113.321Z" fill="white" stroke="#FF3300" stroke-width="1.5"/>
<path d="M152.018 123.693V113.069H144.443V136.323H154.707V124.443H152.768H152.018V123.693Z" fill="white" stroke="#FF3300" stroke-width="1.5"/>
<path d="M153.104 187.837H153.854V188.587V190.847H153.919H154.054H154.189H154.324H154.459H154.594H154.728H154.862H154.997H155.131H155.265H155.398H155.532H155.665H155.798H155.932H156.064H156.197H156.33H156.462H156.595H156.727H156.859H156.991H157.123H157.254H157.386H157.517H157.648H157.78H157.91H158.041H158.172H158.302H158.433H158.563H158.693H158.823H158.953H159.083H159.212H159.342H159.471H159.6H159.729H159.858H159.987H160.115H160.244H160.372H160.501H160.629H160.757H160.885H161.013H161.14H161.268H161.395H161.522H161.65H161.777H161.904H162.03H162.157H162.284H162.41H162.537H162.663H162.789H162.915H163.041H163.167H163.292H163.418H163.543H163.669H163.794H163.919H164.044H164.169H164.294H164.419H164.543H164.668H164.792H164.916H165.041H165.165H165.289H165.413H165.536H165.66H165.784H165.907H166.031H166.154H166.277H166.4H166.524H166.646H166.769H166.892H167.015H167.137H167.26H167.382H167.505H167.627H167.749H167.871H167.993H168.115H168.237H168.359H168.48H168.602H168.723H168.845H168.966H169.087H169.209H169.33H169.451H169.572H169.693H169.814H169.934H170.055H170.176H170.296H170.417H170.537H170.657H170.777H170.898H171.018H171.138H171.258H171.378H171.498H171.617H171.737H171.857H171.976H172.096H172.215H172.335H172.454H172.574H172.693H172.812H172.931H173.05H173.169H173.288H173.407H173.526H173.645H173.764H173.883H174.001H174.12H174.238H174.357H174.475H174.594H174.712H174.831H174.949H175.067H175.185H175.304H175.422H175.54H175.658H175.776H175.894H176.012H176.13H176.248H176.366H176.483H176.601H176.719H176.837H176.954H177.072H177.19H177.307H177.425H177.542H177.66H177.777H177.895H178.012H178.129H178.247H178.364H178.482H178.599H178.716H178.833H178.951H179.068H179.185H179.302H179.419H179.537H179.654H179.771H179.888H180.005H180.122H180.239H180.356H180.473H180.59H180.707H180.824H180.941H181.058H181.175H181.292H181.409H181.526H181.643H181.76H181.877H181.994H182.111H182.228H182.345H182.462H182.579H182.696H182.813H182.93H183.047H183.164H183.281H183.398H183.515H183.632H183.749H183.866H183.983H184.1H184.217H184.334H184.451H184.569H184.686H184.803H184.92H185.037H185.154H185.272H185.389H185.506H185.623H185.741H185.858H185.975H186.093H186.21H186.327H186.445H186.562H186.68H186.797H186.915H187.032H187.15H187.267H187.385H187.503H187.62H187.738H187.856H187.974H188.092H188.209H188.327H188.445H188.563H188.681H188.799H188.917H189.036H189.154H189.272H189.39H189.509H189.627H189.745H189.864H189.982H190.101H190.219H190.338H190.457H190.575H190.694H190.813H190.932H191.051H191.17H191.289H191.408H191.527H191.646H191.766H191.885H192.004H192.124H192.243H192.363H192.482H192.602H192.722H192.841H192.961H193.081H193.201H193.321H193.441H193.562H193.682H193.802H193.923H194.043H194.163H194.284H194.405H194.525H194.646H194.767H194.888H195.009H195.13H195.251H195.373H195.494H195.615H195.737H195.859H195.98H196.102H196.224H196.346H196.468H196.59H196.712H196.834H196.956H197.079H197.201H197.324H197.447H197.569H197.692H197.815H197.938H198.061H198.185H198.308H198.431H198.555H198.678H198.802H198.926H199.05H199.174H199.298H199.422H199.546H199.671H199.795H199.92H200.045H200.169H200.294H200.419H200.545H200.67H200.795H200.921H201.046H201.172H201.298H201.423H201.549H201.676H201.802H201.928H202.055H202.181H202.308H202.435H202.562H202.689H202.816H202.943H203.07H203.198H203.326H203.453H203.581H203.709H203.837H203.966H204.094H204.223H204.351H204.48H204.609H204.738H204.867H204.996H205.126H205.255H205.385H205.515H205.645H205.775H205.905H206.035H206.166H206.297H206.427H206.558H206.689H206.821H206.952H207.083H207.215H207.347H207.479H207.611H207.743H207.875H208.008H208.14H208.273H208.406H208.539H208.672H208.806H208.939H209.073H209.207H209.341H209.475H209.609H209.744H209.878H210.013H210.148H210.283H210.418H210.554H210.689H210.825H210.961H211.097H211.233H211.37H211.506H211.643H211.78H211.917H212.054H212.191H212.329H212.467H212.605H212.743H212.881H213.019H213.158H213.297H213.436H213.575H213.714H213.853H213.993H214.133H214.273H214.413H214.553H214.694H214.835H214.976H215.117H215.258H215.399H215.541H215.683H215.825H215.967H216.109H216.218V182.647H206.548H205.798V181.897V160.569H150.829V187.837H153.104Z" fill="white" stroke="#FF3300" stroke-width="1.5"/>
<path d="M129.99 197.284V160.569H146.305V210.249H109.823V198.034H129.24H129.99V197.284Z" fill="white" stroke="#FF3300" stroke-width="1.5"/>
<path d="M176.969 200.213H176.219V200.963V210.249H144.106V199.973V170.604H152.69V186.245V186.995H153.44H154.707V189.423V190.173H155.457H182.269V200.213H176.969Z" fill="white" stroke="#FF3300" stroke-width="1.5"/>
<path d="M197.551 53.4457V40.4809H207.144V69.0867H192.51V54.1957H196.801H197.551V53.4457Z" fill="white" stroke="#FF3300" stroke-width="1.5"/>
<path d="M159.491 124.443H155.199V136.323H181.261V110.059H174.694V116.668V117.418H173.944H160.241V123.693V124.443H159.491Z" fill="white" stroke="#FF3300" stroke-width="1.5"/>
<path d="M174.953 109.563H181.262V96.3443H173.945H160.242V102.953V109.393V116.922H174.203V110.313V109.563H174.953Z" fill="white" stroke="#FF3300" stroke-width="1.5"/>
<path d="M160.242 40.4783H176.161L181.262 51.16V95.8448H173.945H160.242V77.6393V61.0532V40.4783Z" fill="white" stroke="#FF3300" stroke-width="1.5"/>
<line y1="-0.75" x2="32.1263" y2="-0.75" transform="matrix(0.146483 0.989213 -0.989416 0.145108 8.57138 132.724)" stroke="white" stroke-width="1.5"/>
<line y1="-0.75" x2="25.3269" y2="-0.75" transform="matrix(0.265422 0.964132 -0.964781 0.263053 286.211 73.8508)" stroke="white" stroke-width="1.5"/>
<line x1="293.683" y1="73.5146" x2="293.683" y2="98.6028" stroke="white" stroke-width="1.5"/>
<path d="M216.955 186.246L243.102 186.246L246.547 189.257H251.085" stroke="white" stroke-width="1.5"/>
</svg>
