<?xml version="1.0" encoding="UTF-8" standalone="no"?>
<svg
   xmlns:dc="http://purl.org/dc/elements/1.1/"
   xmlns:cc="http://creativecommons.org/ns#"
   xmlns:rdf="http://www.w3.org/1999/02/22-rdf-syntax-ns#"
   xmlns:svg="http://www.w3.org/2000/svg"
   xmlns="http://www.w3.org/2000/svg"
   xmlns:sodipodi="http://sodipodi.sourceforge.net/DTD/sodipodi-0.dtd"
   xmlns:inkscape="http://www.inkscape.org/namespaces/inkscape"
   width="211"
   height="301"
   viewBox="0 0 211 301"
   version="1.1"
   id="svg72"
   sodipodi:docname="l4schema.svg"
   style="fill:none"
   inkscape:version="0.92.4 (5da689c313, 2019-01-14)">
  <metadata
     id="metadata78">
    <rdf:RDF>
      <cc:Work
         rdf:about="">
        <dc:format>image/svg+xml</dc:format>
        <dc:type
           rdf:resource="http://purl.org/dc/dcmitype/StillImage" />
        <dc:title></dc:title>
      </cc:Work>
    </rdf:RDF>
  </metadata>
  <defs
     id="defs76" />
  <sodipodi:namedview
     pagecolor="#ffffff"
     bordercolor="#666666"
     borderopacity="1"
     objecttolerance="10"
     gridtolerance="10"
     guidetolerance="10"
     inkscape:pageopacity="0"
     inkscape:pageshadow="2"
     inkscape:window-width="2560"
     inkscape:window-height="1387"
     id="namedview74"
     showgrid="false"
     fit-margin-top="0"
     fit-margin-left="0"
     fit-margin-right="0"
     fit-margin-bottom="0"
     inkscape:zoom="1.3484362"
     inkscape:cx="175.17492"
     inkscape:cy="77.55297"
     inkscape:window-x="-8"
     inkscape:window-y="-8"
     inkscape:window-maximized="1"
     inkscape:current-layer="svg72" />
  <g
     id="g920"
     transform="rotate(90,105.5,105.5)">
    <rect
       id="rect2"
       height="26.598801"
       width="28.4151"
       y="106.376"
       x="3.9526701"
       style="fill:#ffffff;stroke:#ff3300;stroke-width:1.5" />
    <rect
       id="rect4"
       height="13.2184"
       width="4.5502501"
       y="40.478298"
       x="192.50999"
       style="fill:#ffffff;stroke:#ff3300;stroke-width:1.5" />
    <rect
       id="rect6"
       height="28.605801"
       width="42.8685"
       y="40.478298"
       x="207.634"
       style="fill:#ffffff;stroke:#ff3300;stroke-width:1.5" />
    <rect
       id="rect8"
       height="27.267799"
       width="19.339701"
       y="41.8176"
       x="250.994"
       style="fill:#ffffff;stroke:#ff3300;stroke-width:1.5" />
    <rect
       id="rect10"
       height="28.271299"
       width="19.339701"
       y="160.569"
       x="34.530899"
       style="fill:#ffffff;stroke:#ff3300;stroke-width:1.5" />
    <rect
       id="rect12"
       height="10.7043"
       width="15.1256"
       y="143"
       x="54"
       style="fill:#ffffff" />
    <rect
       id="rect14"
       height="10.7043"
       width="12.7727"
       y="143"
       x="125"
       style="fill:#ffffff" />
    <path
       id="path16"
       d="m 14.3681,162.911 h 19.6716 v 25.677 0.75 h 0.75 19.0813 v 10.207 h -19.0813 -0.75 v 0.75 9.955 H 9.99417 v -29.766 z"
       inkscape:connector-curvature="0"
       style="fill:#ffffff;stroke:#ff3300;stroke-width:1.5" />
    <rect
       id="rect18"
       height="49.679901"
       width="28.4151"
       y="160.569"
       x="54.3615"
       style="fill:#ffffff;stroke:#ff3300;stroke-width:1.5" />
    <rect
       id="rect20"
       height="49.679901"
       width="26.062201"
       y="160.569"
       x="83.268997"
       style="fill:#ffffff;stroke:#ff3300;stroke-width:1.5" />
    <rect
       id="rect22"
       height="36.633999"
       width="19.6759"
       y="160.569"
       x="109.822"
       style="fill:#ffffff;stroke:#ff3300;stroke-width:1.5" />
    <rect
       id="rect24"
       height="29.609301"
       width="15.9785"
       y="99.020798"
       x="241.92"
       style="fill:#ffffff;stroke:#ff3300;stroke-width:1.5" />
    <path
       id="path26"
       d="m 293.282,129.125 4.175,32.285 h -84.781 v -35.296 h 14.466 v 2.261 0.75 h 0.75 36.638 z"
       inkscape:connector-curvature="0"
       style="fill:#ffffff;stroke:#ff3300;stroke-width:1.5" />
    <path
       id="path28"
       d="m 259.856,186.823 -1.63,2.685 h -6.559 v -27.602 h 16.733 29.265 l 2.089,13.911 v 0.001 l 0.463,3.108 -6.689,10.582 h -28.586 l -4.005,-2.903 -0.659,-0.478 z"
       inkscape:connector-curvature="0"
       style="fill:#ffffff;stroke:#ff3300;stroke-width:1.5" />
    <rect
       id="rect30"
       height="9.0317402"
       width="20.839701"
       y="77"
       x="254.61501"
       style="fill:#ffffff" />
    <path
       id="path32"
       d="m 203.109,133.729 v 2.595 h -6.567 V 126.37 82.2957 h 22.701 V 125.62 h -6.309 -0.75 v 0.75 6.609 h -8.325 -0.75 z"
       inkscape:connector-curvature="0"
       style="fill:#ffffff;stroke:#ff3300;stroke-width:1.5" />
    <path
       id="path34"
       d="m 242.131,98.5246 h 8.373 V 82.2957 H 219.736 V 125.62 h 7.021 0.75 v 0.75 2.26 h 13.874 v -29.3554 -0.75 z"
       inkscape:connector-curvature="0"
       style="fill:#ffffff;stroke:#ff3300;stroke-width:1.5" />
    <rect
       id="rect36"
       height="10.2078"
       width="19.339701"
       y="200.04201"
       x="34.530899"
       style="fill:#ffffff;stroke:#ff3300;stroke-width:1.5" />
    <rect
       id="rect38"
       height="24.8748"
       width="9.0614004"
       y="41.630901"
       x="271.38599"
       style="fill:#ffffff;stroke:#ff3300;stroke-width:1.5" />
    <path
       id="path40"
       d="m 293.069,41.8176 5.911,9.1207 h -4.382 -1.303 l 0.654,1.1263 5.749,9.9125 h -4.14 -1.202 l 0.528,1.0796 4.914,10.0428 h -13.75 l -1.771,-6.5539 -0.149,-0.5544 h -0.575 -1.971 V 41.8176 Z"
       inkscape:connector-curvature="0"
       style="fill:#ffffff;stroke:#ff3300;stroke-width:1.5" />
    <path
       id="path42"
       d="m 294.632,99.0208 2.588,8.8812 -3.638,-0.959 -1.22,-0.321 0.301,1.225 2.584,10.534 -1.983,10.249 H 258.39 v -5.488 -24.1212 z"
       inkscape:connector-curvature="0"
       style="fill:#ffffff;stroke:#ff3300;stroke-width:1.5" />
    <path
       id="path44"
       d="m 0,0 h 152.937 l -0.168,100.946 H 124.534 V 132.8 H 33.4549 V 105.629 H 0 Z"
       inkscape:connector-curvature="0"
       style="fill:#ffffff" />
    <path
       id="path46"
       d="m 143.951,113.321 v 23 h -19.676 v -35.63 h 27.743 v 11.88 h -7.317 -0.75 z"
       inkscape:connector-curvature="0"
       style="fill:#ffffff;stroke:#ff3300;stroke-width:1.5" />
    <path
       id="path48"
       d="m 152.018,123.693 v -10.624 h -7.575 v 23.254 h 10.264 v -11.88 h -1.939 -0.75 z"
       inkscape:connector-curvature="0"
       style="fill:#ffffff;stroke:#ff3300;stroke-width:1.5" />
    <path
       id="path50"
       d="m 153.104,187.837 h 0.75 v 0.75 2.26 h 0.065 0.135 0.135 0.135 0.135 0.135 0.134 0.134 0.135 0.134 0.134 0.133 0.134 0.133 0.133 0.134 0.132 0.133 0.133 0.132 0.133 0.132 0.132 0.132 0.132 0.131 0.132 0.131 0.131 0.132 0.13 0.131 0.131 0.13 0.131 0.13 0.13 0.13 0.13 0.13 0.129 0.13 0.129 0.129 0.129 0.129 0.129 0.128 0.129 0.128 0.129 0.128 0.128 0.128 0.128 0.127 0.128 0.127 0.127 0.128 0.127 0.127 0.126 0.127 0.127 0.126 0.127 0.126 0.126 0.126 0.126 0.126 0.125 0.126 0.125 0.126 0.125 0.125 0.125 0.125 0.125 0.125 0.124 0.125 0.124 0.124 0.125 0.124 0.124 0.124 0.123 0.124 0.124 0.123 0.124 0.123 0.123 0.123 0.124 0.122 0.123 0.123 0.123 0.122 0.123 0.122 0.123 0.122 0.122 0.122 0.122 0.122 0.122 0.122 0.121 0.122 0.121 0.122 0.121 0.121 0.122 0.121 0.121 0.121 0.121 0.121 0.12 0.121 0.121 0.12 0.121 0.12 0.12 0.12 0.121 0.12 0.12 0.12 0.12 0.12 0.119 0.12 0.12 0.119 0.12 0.119 0.12 0.119 0.12 0.119 0.119 0.119 0.119 0.119 0.119 0.119 0.119 0.119 0.119 0.119 0.118 0.119 0.118 0.119 0.118 0.119 0.118 0.119 0.118 0.118 0.118 0.119 0.118 0.118 0.118 0.118 0.118 0.118 0.118 0.118 0.118 0.117 0.118 0.118 0.118 0.117 0.118 0.118 0.117 0.118 0.117 0.118 0.117 0.118 0.117 0.117 0.118 0.117 0.118 0.117 0.117 0.117 0.118 0.117 0.117 0.117 0.117 0.118 0.117 0.117 0.117 0.117 0.117 0.117 0.117 0.117 0.117 0.117 0.117 0.117 0.117 0.117 0.117 0.117 0.117 0.117 0.117 0.117 0.117 0.117 0.117 0.117 0.117 0.117 0.117 0.117 0.117 0.117 0.117 0.117 0.117 0.117 0.117 0.117 0.117 0.117 0.117 0.117 0.117 0.117 0.118 0.117 0.117 0.117 0.117 0.117 0.118 0.117 0.117 0.117 0.118 0.117 0.117 0.118 0.117 0.117 0.118 0.117 0.118 0.117 0.118 0.117 0.118 0.117 0.118 0.118 0.117 0.118 0.118 0.118 0.118 0.117 0.118 0.118 0.118 0.118 0.118 0.118 0.119 0.118 0.118 0.118 0.119 0.118 0.118 0.119 0.118 0.119 0.118 0.119 0.119 0.118 0.119 0.119 0.119 0.119 0.119 0.119 0.119 0.119 0.119 0.12 0.119 0.119 0.12 0.119 0.12 0.119 0.12 0.12 0.119 0.12 0.12 0.12 0.12 0.12 0.121 0.12 0.12 0.121 0.12 0.12 0.121 0.121 0.12 0.121 0.121 0.121 0.121 0.121 0.121 0.122 0.121 0.121 0.122 0.122 0.121 0.122 0.122 0.122 0.122 0.122 0.122 0.122 0.122 0.123 0.122 0.123 0.123 0.122 0.123 0.123 0.123 0.123 0.124 0.123 0.123 0.124 0.123 0.124 0.124 0.124 0.124 0.124 0.124 0.124 0.125 0.124 0.125 0.125 0.124 0.125 0.125 0.126 0.125 0.125 0.126 0.125 0.126 0.126 0.125 0.126 0.127 0.126 0.126 0.127 0.126 0.127 0.127 0.127 0.127 0.127 0.127 0.127 0.128 0.128 0.127 0.128 0.128 0.128 0.129 0.128 0.129 0.128 0.129 0.129 0.129 0.129 0.129 0.13 0.129 0.13 0.13 0.13 0.13 0.13 0.13 0.131 0.131 0.13 0.131 0.131 0.132 0.131 0.131 0.132 0.132 0.132 0.132 0.132 0.132 0.133 0.132 0.133 0.133 0.133 0.133 0.134 0.133 0.134 0.134 0.134 0.134 0.134 0.135 0.134 0.135 0.135 0.135 0.135 0.136 0.135 0.136 0.136 0.136 0.136 0.137 0.136 0.137 0.137 0.137 0.137 0.137 0.138 0.138 0.138 0.138 0.138 0.138 0.139 0.139 0.139 0.139 0.139 0.139 0.14 0.14 0.14 0.14 0.14 0.141 0.141 0.141 0.141 0.141 0.141 0.142 0.142 0.142 0.142 0.142 0.109 v -8.2 h -9.67 -0.75 v -0.75 -21.328 h -54.969 v 27.268 z"
       inkscape:connector-curvature="0"
       style="fill:#ffffff;stroke:#ff3300;stroke-width:1.5" />
    <path
       id="path52"
       d="m 129.99,197.284 v -36.715 h 16.315 v 49.68 h -36.482 v -12.215 h 19.417 0.75 z"
       inkscape:connector-curvature="0"
       style="fill:#ffffff;stroke:#ff3300;stroke-width:1.5" />
    <path
       id="path54"
       d="m 176.969,200.213 h -0.75 v 0.75 9.286 h -32.113 v -10.276 -29.369 h 8.584 v 15.641 0.75 h 0.75 1.267 v 2.428 0.75 h 0.75 26.812 v 10.04 z"
       inkscape:connector-curvature="0"
       style="fill:#ffffff;stroke:#ff3300;stroke-width:1.5" />
    <path
       id="path56"
       d="M 197.551,53.4457 V 40.4809 h 9.593 V 69.0867 H 192.51 v -14.891 h 4.291 0.75 z"
       inkscape:connector-curvature="0"
       style="fill:#ffffff;stroke:#ff3300;stroke-width:1.5" />
    <path
       id="path58"
       d="m 159.491,124.443 h -4.292 v 11.88 h 26.062 v -26.264 h -6.567 v 6.609 0.75 h -0.75 -13.703 v 6.275 0.75 z"
       inkscape:connector-curvature="0"
       style="fill:#ffffff;stroke:#ff3300;stroke-width:1.5" />
    <path
       id="path60"
       d="m 174.953,109.563 h 6.309 V 96.3443 h -7.317 -13.703 v 6.6087 6.44 7.529 h 13.961 v -6.609 -0.75 z"
       inkscape:connector-curvature="0"
       style="fill:#ffffff;stroke:#ff3300;stroke-width:1.5" />
    <path
       id="path62"
       d="m 160.242,40.4783 h 15.919 l 5.101,10.6817 v 44.6848 h -7.317 -13.703 V 77.6393 61.0532 Z"
       inkscape:connector-curvature="0"
       style="fill:#ffffff;stroke:#ff3300;stroke-width:1.5" />
    <line
       transform="matrix(0.146483,0.989213,-0.989416,0.145108,8.57138,132.724)"
       id="line64"
       y2="-0.75"
       x2="32.126301"
       y1="-0.75"
       x1="0"
       style="stroke:#ffffff;stroke-width:1.5" />
    <line
       transform="matrix(0.265422,0.964132,-0.964781,0.263053,286.211,73.8508)"
       id="line66"
       y2="-0.75"
       x2="25.3269"
       y1="-0.75"
       x1="0"
       style="stroke:#ffffff;stroke-width:1.5" />
    <line
       id="line68"
       y2="98.602798"
       x2="293.68301"
       y1="73.514603"
       x1="293.68301"
       style="stroke:#ffffff;stroke-width:1.5" />
    <path
       id="path70"
       d="m 216.955,186.246 h 26.147 l 3.445,3.011 h 4.538"
       inkscape:connector-curvature="0"
       style="stroke:#ffffff;stroke-width:1.5" />
  </g>
</svg>
