<svg width="720" height="505" viewBox="0 0 720 505" fill="none" xmlns="http://www.w3.org/2000/svg">
<path d="M5.5 141.5H111.5V1.5H5.5V141.5Z" fill="#BDBDBD" stroke="#4F4F4F" stroke-width="3"/>
<path d="M111.5 165.5H212.5V1.5H111.5V165.5Z" fill="#BDBDBD" stroke="#4F4F4F" stroke-width="3"/>
<path d="M212.5 165.5H266.5V1.5H212.5V165.5Z" fill="#BDBDBD" stroke="#4F4F4F" stroke-width="3"/>
<path d="M423 98.5H385.5V165.5H484.5V94.5H424.5V97V98.5H423Z" fill="#BDBDBD" stroke="#4F4F4F" stroke-width="3"/>
<path d="M484.5 165.5H540.5V94.5H484.5V165.5Z" fill="#BDBDBD" stroke="#4F4F4F" stroke-width="3"/>
<path d="M220.5 238.5H274.5V195.5H220.5V238.5Z" fill="#BDBDBD" stroke="#4F4F4F" stroke-width="3"/>
<path d="M220.5 319.5H262.5V238.5H220.5V319.5Z" fill="#BDBDBD" stroke="#4F4F4F" stroke-width="3"/>
<path d="M296.5 252V238.5H262.5V319.5H311.5V253.5H298H296.5V252Z" fill="#BDBDBD" stroke="#4F4F4F" stroke-width="3"/>
<path d="M327.077 252V238.5H362.5V319.5H311.5V253.5H325.577H327.077V252Z" fill="#BDBDBD" stroke="#4F4F4F" stroke-width="3"/>
<path d="M274.5 238.5H320.5V195.5H274.5V238.5Z" fill="#BDBDBD" stroke="#4F4F4F" stroke-width="3"/>
<path d="M320.5 238.5H362.5V195.5H320.5V238.5Z" fill="#BDBDBD" stroke="#4F4F4F" stroke-width="3"/>
<path d="M418.5 298V296.5H420H423.5V264V262.5H425H429.5V205V203.5H431H446.5V195.5H362.5V260.676L384.988 260.5L386.5 260.488V262V299.5H418.5V298Z" fill="#BDBDBD" stroke="#4F4F4F" stroke-width="3"/>
<path d="M362.5 206.5H387.5V195.5H362.5V206.5Z" fill="#BDBDBD" stroke="#4F4F4F" stroke-width="3"/>
<path d="M363.5 319.5H421.5V299.5H363.5V319.5Z" fill="#BDBDBD" stroke="#4F4F4F" stroke-width="3"/>
<path d="M362.5 299.5H386.5V260.5H362.5V299.5Z" fill="#BDBDBD" stroke="#4F4F4F" stroke-width="3"/>
<path d="M445 203.5H429.5V262.5H486.5V195.5H446.5V202V203.5H445Z" fill="#BDBDBD" stroke="#4F4F4F" stroke-width="3"/>
<path d="M464 313.5H452.5V262.5H486.5V319.5H465.5V315V313.5H464Z" fill="#BDBDBD" stroke="#4F4F4F" stroke-width="3"/>
<path d="M452.5 312V262.5H423.5V295V296.5H422H421.5V319.5H446H465.5V313.5H454H452.5V312Z" fill="#BDBDBD" stroke="#4F4F4F" stroke-width="3"/>
<path d="M96.5 464.5H131.5V389.5H96.5V464.5Z" fill="#BDBDBD" stroke="#4F4F4F" stroke-width="3"/>
<path d="M131.5 502.5H172.5V389.5H131.5V502.5Z" fill="#BDBDBD" stroke="#4F4F4F" stroke-width="3"/>
<path d="M172.5 502.5H217.5V389.5H172.5V502.5Z" fill="#BDBDBD" stroke="#4F4F4F" stroke-width="3"/>
<path d="M264.5 502.5H368.5V454.5H264.5V502.5Z" fill="#BDBDBD" stroke="#4F4F4F" stroke-width="3"/>
<path d="M368.5 478.5H435.5V454.5H368.5V478.5Z" fill="#BDBDBD" stroke="#4F4F4F" stroke-width="3"/>
<path d="M368.5 502.5H419.5V478.5H368.5V502.5Z" fill="#BDBDBD" stroke="#4F4F4F" stroke-width="3"/>
<path d="M237 389.5H217.5V502.5H264.5V373H238.5V388V389.5H237Z" fill="#BDBDBD" stroke="#4F4F4F" stroke-width="3"/>
<path d="M311 430.5H314.5V357.5H276.5V454.5H309.5V432V430.5H311Z" fill="#BDBDBD" stroke="#4F4F4F" stroke-width="3"/>
<path d="M386 445.5H368.5V454.5H423.5V357.5H387.5V444V445.5H386Z" fill="#BDBDBD" stroke="#4F4F4F" stroke-width="3"/>
<path d="M495 431.5H538.5V454.5H423.5V357.5H493.5V430V431.5H495Z" fill="#BDBDBD" stroke="#4F4F4F" stroke-width="3"/>
<path d="M313 430.14H309.5V454.5H368.5V447V445.5H370H387.5V357.5H314.5V428.64V430.14H313Z" fill="#BDBDBD" stroke="#4F4F4F" stroke-width="3"/>
<path d="M84.4872 503L83.5129 389.5H96.5V463V464.5H98H131.5V503H84.4872Z" fill="#BDBDBD" stroke="#4F4F4F" stroke-width="3"/>
<line x1="384" y1="98.5" x2="362" y2="98.5" stroke="#4F4F4F" stroke-width="3"/>
<line x1="83.5" y1="316" x2="83.5" y2="388" stroke="#4F4F4F" stroke-width="3"/>
<path d="M46.5 254.5H98.5V202.5H46.5V254.5Z" fill="#BDBDBD" stroke="#4F4F4F" stroke-width="3"/>
<path d="M12.5 248V314.5H90.5V254.5H48H46.5V253V202.5H1.5V246.5H11H12.5V248Z" fill="#BDBDBD" stroke="#4F4F4F" stroke-width="3"/>
<path d="M540.5 159.5H600.5V94.5H540.5V159.5Z" fill="#BDBDBD" stroke="#4F4F4F" stroke-width="3"/>
<path d="M519.5 218.5H546.5V187.5H519.5V218.5Z" fill="#BDBDBD" stroke="#4F4F4F" stroke-width="3"/>
<path d="M526.5 391.5H606.5V357.5H526.5V391.5Z" fill="#BDBDBD" stroke="#4F4F4F" stroke-width="3"/>
<path d="M585.515 455.5H599.5V391.5H572.5V411.5H575H576.5V413V430V431.5H575H538.5V455.5H547.5V450V448.5H549H551H551.621L552.061 448.939L553.621 450.5H560.379L561.939 448.939L562.379 448.5H563H576H576.515L576.921 448.816L585.515 455.5Z" fill="#BDBDBD" stroke="#4F4F4F" stroke-width="3"/>
<path d="M622.872 448.779L635.506 457.804L661.5 411.111V391.5H599.5V455.5H617.13L620.698 449.256L621.521 447.815L622.872 448.779Z" fill="#BDBDBD" stroke="#4F4F4F" stroke-width="3"/>
<path d="M600.5 159.5H650.5V98.5H600.5V159.5Z" fill="#BDBDBD" stroke="#4F4F4F" stroke-width="3"/>
<path d="M601 306.5H640.5V234.5H526.5V266.5H583H584.5V268V317.5H599.5V308V306.5H601Z" fill="#BDBDBD" stroke="#4F4F4F" stroke-width="3"/>
<path d="M542.5 315V317.5H584.5V266.5H526.5V268.5V313.5H541H542.5V315Z" fill="#BDBDBD" stroke="#4F4F4F" stroke-width="3"/>
<path d="M650.5 159.5H672.5V98.5H650.5V159.5Z" fill="#BDBDBD" stroke="#4F4F4F" stroke-width="3"/>
<path d="M640.5 306.5H700.784L711.443 256.114L703.455 234.5H640.5V306.5Z" fill="#BDBDBD" stroke="#4F4F4F" stroke-width="3"/>
<path d="M698.25 98.5H672.5V159.5H709.316L702.723 148.786L701.316 146.5H704H716.325L701.22 121.782L699.825 119.5H702.5H714L698.25 98.5Z" fill="#BDBDBD" stroke="#4F4F4F" stroke-width="3"/>
<path d="M709.117 159.5H672.5V234.5H703.331L701.626 230.601L700.706 228.5H703H714.692L703.629 203.609L702.692 201.5H705H716.613L704.648 176.651L703.613 174.5H706H717.451L709.117 159.5Z" fill="#BDBDBD" stroke="#4F4F4F" stroke-width="3"/>
<path d="M344.5 99.7673V155.5H360.5V99.7673V28.5H344.5V34V35.5H343H307.5V98.2673H343H344.5V99.7673Z" fill="#BDBDBD" stroke="#4F4F4F" stroke-width="3"/>
<path d="M344.5 154V98.5H307.5V165.5H360.5V155.5H346H344.5V154Z" fill="#BDBDBD" stroke="#4F4F4F" stroke-width="3"/>
<path d="M309 35.5H344.5V1.5H266.5V165.5H307.5V37V35.5H309Z" fill="#BDBDBD" stroke="#4F4F4F" stroke-width="3"/>
<path d="M52 31.3361H1.5V63.4099V202.5H90.5V13.5H53.5V29.8361V31.3361H52Z" fill="#BDBDBD" stroke="#4F4F4F" stroke-width="3"/>
<path d="M663.671 381.158L674.254 386.45L671.507 357.14L671.263 354.546L673.629 355.638L684.03 360.439L679.022 331.758L678.537 328.976L681.114 330.131L693.039 335.477L689.522 315.257L689.472 314.97L689.533 314.686L690.645 309.5H690.171L688.455 316.364L688.171 317.5H687H601.156H544H542.5V316V313.5H526.5V329V357.5H605H606.5V359V373V391.5H661.5V382.5V380.073L663.671 381.158Z" fill="#BDBDBD" stroke="#4F4F4F" stroke-width="3"/>
<circle cx="551" cy="412" r="16" fill="#5E5E5E"/>
<g clip-path="url(#clip0)">
<path d="M554.736 403.455H547.141C546.585 403.455 546.139 403.961 546.139 404.585V419.415C546.139 420.039 546.585 420.545 547.141 420.545H554.736C555.292 420.545 555.742 420.039 555.742 419.415V404.585C555.743 403.961 555.292 403.455 554.736 403.455ZM554.74 419.012C554.74 419.336 554.515 419.599 554.225 419.599H547.652C547.362 419.599 547.122 419.336 547.122 419.012V405.9C547.122 405.575 547.362 405.308 547.652 405.308H554.225C554.515 405.308 554.74 405.575 554.74 405.9V419.012Z" fill="#F2F2F2"/>
<path d="M559.869 411.043L558.349 409.523C558.174 409.347 557.889 409.347 557.714 409.523L556.193 411.043C556.048 411.187 556.02 411.411 556.123 411.588C556.226 411.765 556.437 411.85 556.634 411.794L557.311 411.606V414.159C557.311 414.408 557.507 414.609 557.757 414.609H558.306C558.554 414.609 558.748 414.407 558.748 414.159V411.605L559.426 411.794C559.623 411.849 559.834 411.764 559.937 411.588C560.041 411.411 560.014 411.187 559.869 411.043Z" fill="#F2F2F2"/>
<path d="M545.372 412.237L544.702 412.425V409.588C544.702 409.339 544.493 409.145 544.244 409.145H543.695C543.446 409.145 543.246 409.339 543.246 409.588V412.425L542.571 412.237C542.375 412.182 542.165 412.267 542.062 412.443C541.958 412.62 541.987 412.843 542.132 412.988L543.652 414.508C543.827 414.684 544.112 414.684 544.288 414.508L545.808 412.988C545.953 412.844 545.983 412.62 545.88 412.443C545.776 412.267 545.569 412.182 545.372 412.237Z" fill="#F2F2F2"/>
<path d="M552.672 409.791C552.627 409.316 552.229 408.956 551.752 408.956H550.125C549.648 408.956 549.25 409.316 549.206 409.791L548.91 412.965C548.905 413.043 548.933 413.12 548.986 413.177C549.039 413.234 549.114 413.266 549.191 413.266H549.749L549.759 418.398C549.759 418.554 549.896 418.673 550.052 418.673H550.525C550.682 418.673 550.808 418.555 550.808 418.399V414.137C550.808 414.066 550.871 414.019 550.943 414.019C551.015 414.019 551.072 414.066 551.072 414.137V418.399C551.072 418.555 551.195 418.673 551.351 418.673H551.824C551.98 418.673 552.113 418.555 552.113 418.399V413.266H552.685C552.762 413.266 552.837 413.234 552.89 413.177C552.944 413.12 552.971 413.045 552.966 412.967L552.672 409.791Z" fill="#F2F2F2"/>
<path d="M550.939 408.554C551.584 408.554 552.107 408.03 552.107 407.385C552.107 406.74 551.584 406.216 550.939 406.216C550.293 406.216 549.77 406.74 549.77 407.385C549.77 408.03 550.293 408.554 550.939 408.554Z" fill="#F2F2F2"/>
</g>
<defs>
<clipPath id="clip0">
<rect width="18" height="18" fill="white" transform="translate(542 403)"/>
</clipPath>
</defs>
</svg>
