<svg width="904" height="631" viewBox="0 0 904 631" fill="none" xmlns="http://www.w3.org/2000/svg">
<rect x="16" y="313" width="86" height="81" fill="#BDBDBD" stroke="#4F4F4F" stroke-width="6"/>
<rect x="574" y="122" width="15" height="41" fill="#BDBDBD" stroke="#4F4F4F" stroke-width="6"/>
<rect x="616" y="122" width="129" height="84" fill="#BDBDBD" stroke="#4F4F4F" stroke-width="6"/>
<rect x="745" y="126" width="61" height="80" fill="#BDBDBD" stroke="#4F4F4F" stroke-width="6"/>
<rect x="104" y="481" width="59" height="86" fill="#BDBDBD" stroke="#4F4F4F" stroke-width="6"/>
<rect x="192" y="428" width="39" height="26" fill="#BDBDBD" stroke="#4F4F4F" stroke-width="6"/>
<rect x="371" y="428" width="32" height="26" fill="#BDBDBD" stroke="#4F4F4F" stroke-width="6"/>
<path d="M43.8475 488H104V564V567H107H163V599H107H104V602V628H31V539.866L43.8475 488Z" fill="#BDBDBD" stroke="#4F4F4F" stroke-width="6"/>
<rect x="163" y="481" width="86" height="147" fill="#BDBDBD" stroke="#4F4F4F" stroke-width="6"/>
<rect x="249" y="481" width="79" height="147" fill="#BDBDBD" stroke="#4F4F4F" stroke-width="6"/>
<rect x="328" y="481" width="60" height="112" fill="#BDBDBD" stroke="#4F4F4F" stroke-width="6"/>
<rect x="718" y="294" width="49" height="90" fill="#BDBDBD" stroke="#4F4F4F" stroke-width="6"/>
<path d="M871.876 384L885.57 486H631V375H678.5V381V384H681.5H788H871.876Z" fill="#BDBDBD" stroke="#4F4F4F" stroke-width="6"/>
<path d="M772.94 558.436L768.317 566H750V486H799.013H885.419L891.533 526.445L891.534 526.448L892.867 535.336L873.353 566H788.968L777.253 557.565L774.627 555.675L772.94 558.436Z" fill="#BDBDBD" stroke="#4F4F4F" stroke-width="6"/>
<rect x="754" y="238" width="56" height="21" fill="#BDBDBD" stroke="#4F4F4F" stroke-width="6"/>
<path d="M604 400V407H586V378V247H656V375H634H631V378V397H607H604V400Z" fill="#BDBDBD" stroke="#4F4F4F" stroke-width="6"/>
<path d="M721 294H745V247H655.5V375H675.5H678.5V378V384H718V297V294H721Z" fill="#BDBDBD" stroke="#4F4F4F" stroke-width="6"/>
<rect x="104" y="599" width="59" height="29" fill="#BDBDBD" stroke="#4F4F4F" stroke-width="6"/>
<rect x="806" y="126" width="30" height="71" fill="#BDBDBD" stroke="#4F4F4F" stroke-width="6"/>
<path d="M870.908 126.25L888.345 152H876H870.674L873.434 156.555L890.674 185H879H874.097L876.329 189.366L891.097 218.25H849.77L844.387 199.185L843.77 197H841.5H836V126.25H870.908Z" fill="#BDBDBD" stroke="#4F4F4F" stroke-width="6"/>
<path d="M876.242 294L883.65 319.735L873.773 317.101L868.895 315.801L870.084 320.707L877.931 353.075L872.019 384H767V367.75V294H876.242Z" fill="#BDBDBD" stroke="#4F4F4F" stroke-width="6"/>
<path d="M99.5312 312.772H3V3H452V303H375H372V306V394H102.531V315.772V312.772H99.5312Z" fill="#BDBDBD" stroke="#4F4F4F" stroke-width="6"/>
<path d="M431 342V407H371V302H452V339H434H431V342Z" fill="#BDBDBD" stroke="#4F4F4F" stroke-width="6"/>
<path d="M452 370V339H431V407H460V373H455H452V370Z" fill="#BDBDBD" stroke="#4F4F4F" stroke-width="6"/>
<path d="M456 561H459V564V570H459.229H459.631H460.032H460.432H460.832H461.232H461.631H462.03H462.428H462.826H463.223H463.62H464.016H464.412H464.808H465.203H465.598H465.992H466.386H466.779H467.172H467.564H467.956H468.348H468.739H469.13H469.52H469.91H470.3H470.689H471.078H471.466H471.854H472.241H472.628H473.015H473.401H473.787H474.173H474.558H474.942H475.327H475.71H476.094H476.477H476.86H477.242H477.624H478.006H478.387H478.768H479.149H479.529H479.909H480.288H480.667H481.046H481.424H481.802H482.18H482.557H482.934H483.311H483.687H484.063H484.438H484.814H485.189H485.563H485.937H486.311H486.685H487.058H487.431H487.804H488.176H488.548H488.92H489.291H489.662H490.033H490.403H490.773H491.143H491.513H491.882H492.251H492.619H492.988H493.356H493.724H494.091H494.458H494.825H495.192H495.558H495.924H496.29H496.656H497.021H497.386H497.751H498.115H498.479H498.843H499.207H499.571H499.934H500.297H500.659H501.022H501.384H501.746H502.108H502.469H502.831H503.192H503.552H503.913H504.273H504.633H504.993H505.353H505.712H506.072H506.431H506.789H507.148H507.506H507.865H508.223H508.58H508.938H509.295H509.652H510.009H510.366H510.723H511.079H511.435H511.791H512.147H512.503H512.858H513.214H513.569H513.924H514.279H514.633H514.988H515.342H515.696H516.05H516.404H516.758H517.111H517.465H517.818H518.171H518.524H518.877H519.23H519.582H519.934H520.287H520.639H520.991H521.343H521.694H522.046H522.397H522.749H523.1H523.451H523.802H524.153H524.504H524.855H525.205H525.556H525.906H526.256H526.607H526.957H527.307H527.657H528.007H528.356H528.706H529.056H529.405H529.754H530.104H530.453H530.802H531.151H531.5H531.849H532.198H532.547H532.896H533.245H533.593H533.942H534.291H534.639H534.988H535.336H535.685H536.033H536.381H536.73H537.078H537.426H537.774H538.122H538.471H538.819H539.167H539.515H539.863H540.211H540.559H540.907H541.255H541.603H541.951H542.299H542.647H542.995H543.343H543.691H544.039H544.387H544.735H545.083H545.431H545.779H546.127H546.476H546.824H547.172H547.52H547.868H548.217H548.565H548.913H549.262H549.61H549.958H550.307H550.655H551.004H551.353H551.701H552.05H552.399H552.748H553.097H553.446H553.795H554.144H554.493H554.842H555.192H555.541H555.891H556.24H556.59H556.94H557.289H557.639H557.989H558.339H558.69H559.04H559.39H559.741H560.091H560.442H560.793H561.144H561.495H561.846H562.197H562.548H562.9H563.251H563.603H563.955H564.307H564.659H565.011H565.364H565.716H566.069H566.422H566.775H567.128H567.481H567.834H568.188H568.541H568.895H569.249H569.603H569.958H570.312H570.667H571.022H571.376H571.732H572.087H572.442H572.798H573.154H573.51H573.866H574.222H574.579H574.936H575.293H575.65H576.007H576.365H576.723H577.081H577.439H577.797H578.156H578.514H578.873H579.233H579.592H579.952H580.311H580.672H581.032H581.392H581.753H582.114H582.475H582.837H583.199H583.561H583.923H584.285H584.648H585.011H585.374H585.737H586.101H586.465H586.829H587.194H587.558H587.923H588.289H588.654H589.02H589.386H589.752H590.119H590.486H590.853H591.22H591.588H591.956H592.324H592.693H593.062H593.431H593.801H594.17H594.54H594.911H595.282H595.653H596.024H596.396H596.767H597.14H597.512H597.885H598.258H598.632H599.006H599.38H599.755H600.13H600.505H600.88H601.256H601.632H602.009H602.386H602.763H603.141H603.519H603.897H604.276H604.655H605.034H605.414H605.794H606.174H606.555H606.936H607.318H607.7H608.082H608.465H608.848H609.232H609.616H610H610.384H610.769H611.155H611.541H611.927H612.314H612.701H613.088H613.476H613.864H614.253H614.642H615.031H615.421H615.811H616.202H616.593H616.985H617.377H617.769H618.162H618.555H618.949H619.343H619.738H620.133H620.528H620.924H621.321H621.718H622.115H622.513H622.911H623.309H623.709H624.108H624.508H624.909H625.31H625.711H626.113H626.515H626.918H627.321H627.725H628.13H628.534H628.94H629.345H629.752H630.158H630.566H630.973H631.382H631.79H632.2H632.609H633.02H633.43H633.842H634.253H634.666H635.078H635.492H635.906H636.32H636.735H637.15H637.566H637.983H638.4H638.817H639.235H639.654H640.073H640.493H640.913H641.334H641.755H642.177H642.6H643V547H615H612V544V481H450V561H456Z" fill="#BDBDBD" stroke="#4F4F4F" stroke-width="6"/>
<path d="M388 590V481H435V628H328V593H385H388V590Z" fill="#BDBDBD" stroke="#4F4F4F" stroke-width="6"/>
<path d="M527 598H524V601V628H430V598.039V511H454V557V560H457H460V566.5V569.5H463H542V598H527Z" fill="#BDBDBD" stroke="#4F4F4F" stroke-width="6"/>
<path d="M589 160V122H616V206H574V163H586H589V160Z" fill="#BDBDBD" stroke="#4F4F4F" stroke-width="6"/>
<path d="M475 373H460V407H539V370V328H521V349V352H518H478V370V373H475Z" fill="#BDBDBD" stroke="#4F4F4F" stroke-width="6"/>
<path d="M524 328H539V286H518H478V307V328V352H521V331V328H524Z" fill="#BDBDBD" stroke="#4F4F4F" stroke-width="6"/>
<path d="M478 122H524.104L539 153.343V286H518H478V232.333V182.75V122Z" fill="#BDBDBD" stroke="#4F4F4F" stroke-width="6"/>
<line x1="28.9679" y1="396.563" x2="42.9679" y2="491.563" stroke="#4F4F4F" stroke-width="6"/>
<line x1="850.85" y1="220.063" x2="874.85" y2="293.063" stroke="#4F4F4F" stroke-width="6"/>
<line x1="875" y1="220" x2="875" y2="292" stroke="#4F4F4F" stroke-width="6"/>
<path d="M645.961 557L723.75 557L734 566H747.5" stroke="#4F4F4F" stroke-width="6"/>
<circle cx="566" cy="143" r="16" fill="#5E5E5E"/>
<path d="M567.055 139.309H564.418V142.473H567.055C567.93 142.473 568.637 141.766 568.637 140.891C568.637 140.015 567.93 139.309 567.055 139.309Z" fill="#F2F2F2"/>
<path d="M566 134C561.057 134 557 138.057 557 143C557 147.943 561.057 152 566 152C570.943 152 575 147.943 575 143C575 138.057 570.943 134 566 134ZM567.055 144.582H564.418V148.801H562.309V137.199H567.055C569.09 137.199 570.746 138.855 570.746 140.891C570.746 142.926 569.09 144.582 567.055 144.582Z" fill="#F2F2F2"/>
<circle cx="503" cy="25" r="16" fill="#5E5E5E"/>
<g clip-path="url(#clip0)">
<path d="M512 32L512 18C512 16.895 511.105 16 510 16L506 16L506 18L510 18L510 32L496 32L496 18L500 18L500 16L496 16C494.895 16 494 16.895 494 18L494 32C494 33.105 494.895 34 496 34L510 34C511.105 34 512 33.105 512 32Z" fill="#F2F2F2"/>
<path d="M499.415 23.085L498 24.5L503 29.5L508 24.5L506.585 23.085L504 25.67L504 16L502 16L502 25.67L499.415 23.085Z" fill="#F2F2F2"/>
</g>
<circle cx="888" cy="441" r="16" transform="rotate(90 888 441)" fill="#5E5E5E"/>
<g clip-path="url(#clip1)">
<path d="M881 450L895 450C896.105 450 897 449.105 897 448L897 444L895 444L895 448L881 448L881 434L895 434L895 438L897 438L897 434C897 432.895 896.105 432 895 432L881 432C879.895 432 879 432.895 879 434L879 448C879 449.105 879.895 450 881 450Z" fill="#F2F2F2"/>
<path d="M889.915 437.415L888.5 436L883.5 441L888.5 446L889.915 444.585L887.33 442L897 442L897 440L887.33 440L889.915 437.415Z" fill="#F2F2F2"/>
</g>
<circle cx="888" cy="553" r="16" transform="rotate(90 888 553)" fill="#5E5E5E"/>
<g clip-path="url(#clip2)">
<path d="M881 562L895 562C896.105 562 897 561.105 897 560L897 556L895 556L895 560L881 560L881 546L895 546L895 550L897 550L897 546C897 544.895 896.105 544 895 544L881 544C879.895 544 879 544.895 879 546L879 560C879 561.105 879.895 562 881 562Z" fill="#F2F2F2"/>
<path d="M889.915 549.415L888.5 548L883.5 553L888.5 558L889.915 556.585L887.33 554L897 554L897 552L887.33 552L889.915 549.415Z" fill="#F2F2F2"/>
</g>
<circle cx="667" cy="553" r="16" transform="rotate(-180 667 553)" fill="#5E5E5E"/>
<g clip-path="url(#clip3)">
<path d="M658 546L658 560C658 561.105 658.895 562 660 562L664 562L664 560L660 560L660 546L674 546L674 560L670 560L670 562L674 562C675.105 562 676 561.105 676 560L676 546C676 544.895 675.105 544 674 544L660 544C658.895 544 658 544.895 658 546Z" fill="#F2F2F2"/>
<path d="M670.585 554.915L672 553.5L667 548.5L662 553.5L663.415 554.915L666 552.33L666 562L668 562L668 552.33L670.585 554.915Z" fill="#F2F2F2"/>
</g>
<circle cx="29" cy="441" r="16" transform="rotate(-90 29 441)" fill="#5E5E5E"/>
<path d="M36 432L22 432C20.895 432 20 432.895 20 434L20 438H22L22 434L36 434L36 448L22 448L22 444H20L20 448C20 449.105 20.895 450 22 450L36 450C37.105 450 38 449.105 38 448L38 434C38 432.895 37.105 432 36 432Z" fill="#F2F2F2"/>
<path d="M27.085 444.585L28.5 446L33.5 441L28.5 436L27.085 437.415L29.67 440L20 440L20 442L29.67 442L27.085 444.585Z" fill="#F2F2F2"/>
<circle cx="774" cy="275" r="16" fill="#5E5E5E"/>
<path d="M766.045 275.801C766.05 275.801 766.056 275.801 766.062 275.801C766.427 275.792 766.715 275.489 766.706 275.124L766.631 272.075L767.308 271.537C767.308 271.537 766.987 274.035 766.953 274.873C766.945 275.073 766.972 275.675 766.972 275.675C767.168 275.591 767.29 275.553 767.502 275.481L770.659 274.414L770.039 274.313C769.436 274.216 769.08 273.729 769.021 273.43L768.498 270.778L769.644 273.307C769.736 273.51 769.923 273.652 770.141 273.687L772.748 274.11C773.107 274.168 773.448 273.926 773.507 273.563C773.565 273.203 773.321 272.863 772.96 272.805L770.702 272.438L769.664 270.148L771.028 271.831L771.16 270.587C771.218 270.047 770.828 269.562 770.288 269.503C769.098 269.374 768.456 269.312 768.279 269.317C768.113 269.321 767.941 269.345 767.801 269.456L765.551 271.244C765.389 271.373 765.296 271.571 765.301 271.778L765.384 275.156C765.393 275.516 765.687 275.801 766.045 275.801Z" fill="#F2F2F2"/>
<path d="M768.735 281.444L768.981 279.098C768.987 279.036 768.986 278.973 768.978 278.911L768.809 277.702L768.107 277.939C767.809 278.04 767.554 278.212 767.355 278.429L767.439 279.03L767.259 280.746C767.622 281.215 768.169 281.46 768.735 281.444Z" fill="#F2F2F2"/>
<path d="M771.078 280.791L771.274 278.99C771.283 278.908 771.278 278.825 771.261 278.744L770.884 277L769.416 277.497L769.729 278.948L769.475 281.286L771.078 280.791Z" fill="#F2F2F2"/>
<path d="M769.879 268.919C770.685 268.919 771.339 268.265 771.339 267.459C771.339 266.653 770.685 266 769.879 266C769.073 266 768.42 266.653 768.42 267.459C768.42 268.265 769.073 268.919 769.879 268.919Z" fill="#F2F2F2"/>
<path d="M782.693 278.085C782.592 278.01 782.462 277.988 782.342 278.025L769.415 282.015C768.081 282.427 766.666 281.654 766.293 280.308C765.942 279.04 766.643 277.717 767.889 277.296L782.566 272.335C782.871 272.232 783.034 271.902 782.931 271.597C782.828 271.293 782.498 271.129 782.193 271.232L774.035 273.99C773.796 274.519 773.231 274.831 772.646 274.737L772.091 274.646L767.516 276.193C765.685 276.812 764.655 278.756 765.171 280.619C765.5 281.806 766.441 282.811 767.722 283.159C767.473 283.236 765.874 283.729 765.614 283.81C765.568 283.824 765.539 283.87 765.546 283.917C765.553 283.965 765.594 284 765.642 284H782.655C782.762 284 782.848 283.914 782.848 283.807V279.797L782.853 278.404C782.854 278.279 782.795 278.16 782.693 278.085Z" fill="#F2F2F2"/>
<circle cx="160" cy="441" r="16" fill="#5E5E5E"/>
<path d="M152.045 441.801C152.05 441.801 152.056 441.801 152.062 441.801C152.427 441.792 152.715 441.489 152.706 441.124L152.631 438.075L153.308 437.537C153.308 437.537 152.987 440.035 152.953 440.873C152.945 441.073 152.972 441.675 152.972 441.675C153.168 441.591 153.29 441.553 153.502 441.481L156.659 440.414L156.039 440.313C155.436 440.216 155.08 439.729 155.021 439.43L154.498 436.778L155.644 439.307C155.736 439.51 155.923 439.652 156.141 439.687L158.748 440.11C159.107 440.168 159.448 439.926 159.507 439.563C159.565 439.203 159.321 438.863 158.96 438.805L156.702 438.438L155.664 436.148L157.028 437.831L157.16 436.587C157.218 436.047 156.828 435.562 156.288 435.503C155.098 435.374 154.456 435.312 154.279 435.317C154.113 435.321 153.941 435.345 153.801 435.456L151.551 437.244C151.389 437.373 151.296 437.571 151.301 437.778L151.384 441.156C151.393 441.516 151.687 441.801 152.045 441.801Z" fill="#F2F2F2"/>
<path d="M154.735 447.444L154.981 445.098C154.987 445.036 154.986 444.973 154.978 444.911L154.809 443.702L154.107 443.939C153.809 444.04 153.554 444.212 153.355 444.429L153.439 445.03L153.259 446.746C153.622 447.215 154.169 447.46 154.735 447.444Z" fill="#F2F2F2"/>
<path d="M157.078 446.791L157.274 444.99C157.283 444.908 157.278 444.825 157.261 444.744L156.884 443L155.416 443.497L155.729 444.948L155.475 447.286L157.078 446.791Z" fill="#F2F2F2"/>
<path d="M155.879 434.919C156.685 434.919 157.339 434.265 157.339 433.459C157.339 432.653 156.685 432 155.879 432C155.073 432 154.42 432.653 154.42 433.459C154.42 434.265 155.073 434.919 155.879 434.919Z" fill="#F2F2F2"/>
<path d="M168.693 444.085C168.592 444.01 168.462 443.988 168.342 444.025L155.415 448.015C154.081 448.427 152.666 447.654 152.293 446.308C151.942 445.04 152.643 443.717 153.889 443.296L168.566 438.335C168.871 438.232 169.034 437.902 168.931 437.597C168.828 437.293 168.498 437.129 168.193 437.232L160.035 439.99C159.796 440.519 159.231 440.831 158.646 440.737L158.091 440.646L153.516 442.193C151.685 442.812 150.655 444.756 151.171 446.619C151.5 447.806 152.441 448.811 153.722 449.159C153.473 449.236 151.874 449.729 151.614 449.81C151.568 449.824 151.539 449.87 151.546 449.917C151.553 449.965 151.594 450 151.642 450H168.655C168.762 450 168.848 449.914 168.848 449.807V445.797L168.853 444.404C168.854 444.279 168.795 444.16 168.693 444.085Z" fill="#F2F2F2"/>
<circle cx="816" cy="275" r="16" fill="#5E5E5E"/>
<g clip-path="url(#clip4)">
<path d="M808.269 274.389L809.192 272.092L810.008 271.586L809.184 275.162L809.194 275.164C809.173 275.254 809.167 275.35 809.18 275.447L809.35 276.669L810.79 275.893L810.738 275.52L810.913 275.56L811.068 275.743C811.426 275.55 812.469 274.988 812.827 274.795L812.804 274.793C812.223 274.727 811.829 274.278 811.751 273.963L811.105 271.352L812.365 273.811C812.465 274.008 812.657 274.14 812.876 274.165L815.488 274.463C815.83 274.501 816.142 274.271 816.208 273.936C816.282 273.558 816.018 273.198 815.637 273.155L813.375 272.898L812.235 270.67L813.66 272.268L813.932 271.09C814.053 270.562 813.724 270.036 813.196 269.914C811.738 269.584 811.413 269.481 811.235 269.466C811.072 269.452 810.897 269.488 810.746 269.581L808.316 271.087C808.196 271.161 808.104 271.271 808.052 271.401L807.048 273.898C806.912 274.235 807.076 274.619 807.413 274.754C807.75 274.89 808.133 274.726 808.269 274.389Z" fill="#F2F2F2"/>
<path d="M809.667 279.569L809.333 282.758C809.286 283.21 809.639 283.605 810.096 283.605C810.484 283.605 810.816 283.312 810.858 282.918L811.239 279.279C811.251 279.16 811.238 279.112 811.188 278.75L809.667 279.569Z" fill="#F2F2F2"/>
<path d="M813.032 269.3C813.835 269.3 814.485 268.65 814.485 267.848C814.485 267.046 813.835 266.396 813.032 266.396C812.23 266.396 811.58 267.046 811.58 267.848C811.58 268.65 812.23 269.3 813.032 269.3Z" fill="#F2F2F2"/>
<path d="M824.997 269.885C824.997 269.447 824.527 269.166 824.141 269.376L816.779 273.381C816.843 273.562 816.866 273.757 816.844 273.954C816.764 274.659 816.127 275.171 815.416 275.09L813.945 274.923L807.652 278.346C807.465 278.447 807.349 278.642 807.349 278.855C807.349 279.361 807.349 282.572 807.349 283.025C807.349 283.345 807.608 283.604 807.928 283.604C808.248 283.604 808.508 283.345 808.508 283.025C808.508 282.596 808.508 279.635 808.508 279.199L823.838 270.859C823.838 271.148 823.838 276.985 823.838 277.271H821.854C821.748 277.271 821.662 277.357 821.662 277.463V278.855H818.515C818.409 278.855 818.323 278.941 818.323 279.047V280.438H815.177C815.071 280.438 814.985 280.524 814.985 280.63V282.021H813.33C813.494 281.913 813.617 281.743 813.66 281.535L814.431 277.783C814.478 277.556 814.428 277.324 814.24 277.104L812.852 277.852L812.158 281.227C812.093 281.543 812.234 281.854 812.488 282.021H811.839C811.733 282.021 811.647 282.107 811.647 282.213V283.412C811.647 283.519 811.733 283.605 811.839 283.605H824.808C824.914 283.605 825 283.519 825 283.412C825 276.741 824.997 279.369 824.997 269.885Z" fill="#F2F2F2"/>
</g>
<circle cx="735" cy="553" r="16" fill="#5E5E5E"/>
<g clip-path="url(#clip5)">
<path d="M727.269 552.389L728.192 550.092L729.008 549.586L728.184 553.162L728.194 553.164C728.173 553.254 728.167 553.35 728.18 553.447L728.35 554.669L729.79 553.893L729.738 553.52L729.913 553.56L730.068 553.743C730.426 553.55 731.469 552.988 731.827 552.795L731.804 552.793C731.223 552.727 730.829 552.278 730.751 551.963L730.105 549.352L731.365 551.811C731.465 552.008 731.657 552.14 731.876 552.165L734.488 552.463C734.83 552.501 735.142 552.271 735.208 551.936C735.282 551.558 735.018 551.198 734.637 551.155L732.375 550.898L731.235 548.67L732.66 550.268L732.932 549.09C733.053 548.562 732.724 548.036 732.196 547.914C730.738 547.584 730.413 547.481 730.235 547.466C730.072 547.452 729.897 547.488 729.746 547.581L727.316 549.087C727.196 549.161 727.104 549.271 727.052 549.401L726.048 551.898C725.912 552.235 726.076 552.619 726.413 552.754C726.75 552.89 727.133 552.726 727.269 552.389Z" fill="#F2F2F2"/>
<path d="M728.667 557.569L728.333 560.758C728.286 561.21 728.639 561.605 729.096 561.605C729.484 561.605 729.816 561.312 729.858 560.918L730.239 557.279C730.251 557.16 730.238 557.112 730.188 556.75L728.667 557.569Z" fill="#F2F2F2"/>
<path d="M732.032 547.3C732.835 547.3 733.485 546.65 733.485 545.848C733.485 545.046 732.835 544.396 732.032 544.396C731.23 544.396 730.58 545.046 730.58 545.848C730.58 546.65 731.23 547.3 732.032 547.3Z" fill="#F2F2F2"/>
<path d="M743.997 547.885C743.997 547.447 743.527 547.166 743.141 547.376L735.779 551.381C735.843 551.562 735.866 551.757 735.844 551.954C735.764 552.659 735.127 553.171 734.416 553.09L732.945 552.923L726.652 556.346C726.465 556.447 726.349 556.642 726.349 556.855C726.349 557.361 726.349 560.572 726.349 561.025C726.349 561.345 726.608 561.604 726.928 561.604C727.248 561.604 727.508 561.345 727.508 561.025C727.508 560.596 727.508 557.635 727.508 557.199L742.838 548.859C742.838 549.148 742.838 554.985 742.838 555.271H740.854C740.748 555.271 740.662 555.357 740.662 555.463V556.855H737.515C737.409 556.855 737.323 556.941 737.323 557.047V558.438H734.177C734.071 558.438 733.985 558.524 733.985 558.63V560.021H732.33C732.494 559.913 732.617 559.743 732.66 559.535L733.431 555.783C733.478 555.556 733.428 555.324 733.24 555.104L731.852 555.852L731.158 559.227C731.093 559.543 731.234 559.854 731.488 560.021H730.839C730.733 560.021 730.647 560.107 730.647 560.213V561.412C730.647 561.519 730.733 561.605 730.839 561.605H743.808C743.914 561.605 744 561.519 744 561.412C744 554.741 743.997 557.369 743.997 547.885Z" fill="#F2F2F2"/>
</g>
<circle cx="700" cy="521" r="16" fill="#5E5E5E"/>
<g clip-path="url(#clip6)">
<path d="M703.736 512.455H696.141C695.585 512.455 695.139 512.961 695.139 513.585V528.415C695.139 529.039 695.585 529.545 696.141 529.545H703.736C704.293 529.545 704.743 529.039 704.743 528.415V513.585C704.743 512.961 704.293 512.455 703.736 512.455ZM703.741 528.012C703.741 528.336 703.515 528.599 703.226 528.599H696.652C696.363 528.599 696.122 528.336 696.122 528.012V514.9C696.122 514.575 696.363 514.308 696.652 514.308H703.226C703.515 514.308 703.741 514.575 703.741 514.9V528.012Z" fill="#F2F2F2"/>
<path d="M708.869 520.043L707.349 518.523C707.174 518.347 706.889 518.347 706.714 518.523L705.193 520.043C705.048 520.187 705.02 520.411 705.123 520.588C705.226 520.765 705.437 520.85 705.634 520.794L706.311 520.606V523.159C706.311 523.408 706.507 523.609 706.757 523.609H707.306C707.554 523.609 707.748 523.407 707.748 523.159V520.605L708.426 520.794C708.623 520.849 708.834 520.764 708.937 520.588C709.041 520.411 709.014 520.187 708.869 520.043Z" fill="#F2F2F2"/>
<path d="M694.372 521.237L693.702 521.425V518.588C693.702 518.339 693.493 518.145 693.244 518.145H692.695C692.446 518.145 692.246 518.339 692.246 518.588V521.425L691.571 521.237C691.375 521.182 691.165 521.267 691.062 521.443C690.958 521.62 690.987 521.843 691.132 521.988L692.652 523.508C692.827 523.684 693.112 523.684 693.288 523.508L694.808 521.988C694.953 521.844 694.983 521.62 694.88 521.443C694.776 521.267 694.569 521.182 694.372 521.237Z" fill="#F2F2F2"/>
<path d="M701.672 518.791C701.627 518.316 701.229 517.956 700.752 517.956H699.125C698.648 517.956 698.25 518.316 698.206 518.791L697.91 521.965C697.905 522.043 697.933 522.12 697.986 522.177C698.039 522.234 698.114 522.266 698.191 522.266H698.749L698.759 527.398C698.759 527.554 698.896 527.673 699.052 527.673H699.525C699.682 527.673 699.808 527.555 699.808 527.399V523.137C699.808 523.066 699.871 523.019 699.943 523.019C700.015 523.019 700.072 523.066 700.072 523.137V527.399C700.072 527.555 700.195 527.673 700.351 527.673H700.824C700.98 527.673 701.113 527.555 701.113 527.399V522.266H701.685C701.762 522.266 701.837 522.234 701.89 522.177C701.944 522.12 701.971 522.045 701.966 521.967L701.672 518.791Z" fill="#F2F2F2"/>
<path d="M699.939 517.554C700.584 517.554 701.107 517.03 701.107 516.385C701.107 515.74 700.584 515.216 699.939 515.216C699.293 515.216 698.77 515.74 698.77 516.385C698.77 517.03 699.293 517.554 699.939 517.554Z" fill="#F2F2F2"/>
</g>
<circle cx="339" cy="441" r="16" fill="#5E5E5E"/>
<g clip-path="url(#clip7)">
<path d="M342.736 432.455H335.141C334.585 432.455 334.139 432.961 334.139 433.585V448.415C334.139 449.039 334.585 449.545 335.141 449.545H342.736C343.293 449.545 343.743 449.039 343.743 448.415V433.585C343.743 432.961 343.293 432.455 342.736 432.455ZM342.741 448.012C342.741 448.336 342.515 448.599 342.226 448.599H335.652C335.363 448.599 335.122 448.336 335.122 448.012V434.9C335.122 434.575 335.363 434.308 335.652 434.308H342.226C342.515 434.308 342.741 434.575 342.741 434.9V448.012Z" fill="#F2F2F2"/>
<path d="M347.869 440.043L346.349 438.523C346.174 438.347 345.889 438.347 345.714 438.523L344.193 440.043C344.048 440.187 344.02 440.411 344.123 440.588C344.226 440.765 344.437 440.85 344.634 440.794L345.311 440.606V443.159C345.311 443.408 345.507 443.609 345.757 443.609H346.306C346.554 443.609 346.748 443.407 346.748 443.159V440.605L347.426 440.794C347.623 440.849 347.834 440.764 347.937 440.588C348.041 440.411 348.014 440.187 347.869 440.043Z" fill="#F2F2F2"/>
<path d="M333.372 441.237L332.702 441.425V438.588C332.702 438.339 332.493 438.145 332.244 438.145H331.695C331.446 438.145 331.246 438.339 331.246 438.588V441.425L330.571 441.237C330.375 441.182 330.165 441.267 330.062 441.443C329.958 441.62 329.987 441.843 330.132 441.988L331.652 443.508C331.827 443.684 332.112 443.684 332.288 443.508L333.808 441.988C333.953 441.844 333.983 441.62 333.88 441.443C333.776 441.267 333.569 441.182 333.372 441.237Z" fill="#F2F2F2"/>
<path d="M340.672 438.791C340.627 438.316 340.229 437.956 339.752 437.956H338.125C337.648 437.956 337.25 438.316 337.206 438.791L336.91 441.965C336.905 442.043 336.933 442.12 336.986 442.177C337.039 442.234 337.114 442.266 337.191 442.266H337.749L337.759 447.398C337.759 447.554 337.896 447.673 338.052 447.673H338.525C338.682 447.673 338.808 447.555 338.808 447.399V443.137C338.808 443.066 338.871 443.019 338.943 443.019C339.015 443.019 339.072 443.066 339.072 443.137V447.399C339.072 447.555 339.195 447.673 339.351 447.673H339.824C339.98 447.673 340.113 447.555 340.113 447.399V442.266H340.685C340.762 442.266 340.837 442.234 340.89 442.177C340.944 442.12 340.971 442.045 340.966 441.967L340.672 438.791Z" fill="#F2F2F2"/>
<path d="M338.939 437.554C339.584 437.554 340.107 437.03 340.107 436.385C340.107 435.74 339.584 435.216 338.939 435.216C338.293 435.216 337.77 435.74 337.77 436.385C337.77 437.03 338.293 437.554 338.939 437.554Z" fill="#F2F2F2"/>
</g>
<defs>
<clipPath id="clip0">
<rect width="18" height="18" fill="white" transform="translate(512 16) rotate(90)"/>
</clipPath>
<clipPath id="clip1">
<rect width="18" height="18" fill="white" transform="translate(897 450) rotate(-180)"/>
</clipPath>
<clipPath id="clip2">
<rect width="18" height="18" fill="white" transform="translate(897 562) rotate(-180)"/>
</clipPath>
<clipPath id="clip3">
<rect width="18" height="18" fill="white" transform="translate(658 562) rotate(-90)"/>
</clipPath>
<clipPath id="clip4">
<rect width="18" height="18" fill="white" transform="translate(807 266)"/>
</clipPath>
<clipPath id="clip5">
<rect width="18" height="18" fill="white" transform="translate(726 544)"/>
</clipPath>
<clipPath id="clip6">
<rect width="18" height="18" fill="white" transform="translate(691 512)"/>
</clipPath>
<clipPath id="clip7">
<rect width="18" height="18" fill="white" transform="translate(330 432)"/>
</clipPath>
</defs>
</svg>
