<svg width="18" height="21" viewBox="0 0 18 21" fill="none" xmlns="http://www.w3.org/2000/svg">
<path fill-rule="evenodd" clip-rule="evenodd" d="M8.89134 9.22174C11.0789 9.22174 12.8522 7.4484 12.8522 5.26087C12.8522 3.07334 11.0789 1.3 8.89134 1.3C6.70381 1.3 4.93047 3.07334 4.93047 5.26087C4.93047 7.4484 6.70381 9.22174 8.89134 9.22174ZM8.89134 10.5217C11.7968 10.5217 14.1522 8.16637 14.1522 5.26087C14.1522 2.35537 11.7968 0 8.89134 0C5.98584 0 3.63047 2.35537 3.63047 5.26087C3.63047 8.16637 5.98584 10.5217 8.89134 10.5217Z" fill="black"/>
<path fill-rule="evenodd" clip-rule="evenodd" d="M8.89091 12.9254C4.89165 12.9254 1.64961 16.1674 1.64961 20.1667C1.64961 20.5257 1.35859 20.8167 0.999609 20.8167C0.640624 20.8167 0.349609 20.5257 0.349609 20.1667C0.349609 15.4495 4.17368 11.6254 8.89091 11.6254C13.6081 11.6254 17.4322 15.4495 17.4322 20.1667C17.4322 20.5257 17.1412 20.8167 16.7822 20.8167C16.4232 20.8167 16.1322 20.5257 16.1322 20.1667C16.1322 16.1674 12.8902 12.9254 8.89091 12.9254Z" fill="black"/>
</svg>
