<svg width="33" height="31" viewBox="0 0 33 31" fill="none" xmlns="http://www.w3.org/2000/svg">
<path fill-rule="evenodd" clip-rule="evenodd" d="M8.8227 11.1223L11.1304 17.2762C11.4963 18.2519 12.4291 18.8984 13.4712 18.8984L25.3856 18.8984C26.4277 18.8984 27.3605 18.2519 27.7264 17.2762L30.5459 9.75765C31.1587 8.12328 29.9505 6.37984 28.205 6.37984L10.6518 6.37984C9.01529 6.37984 7.85108 7.91231 8.21713 9.45062L8.77596 10.9175C8.80164 10.985 8.81696 11.0538 8.8227 11.1223ZM4.47593 3.84351L6.78369 9.90138C6.81787 10.0292 6.85872 10.157 6.90647 10.2843L9.72592 17.8029C10.3114 19.3641 11.8039 20.3984 13.4712 20.3984L25.3856 20.3984C27.053 20.3984 28.5454 19.3641 29.1309 17.8029L31.9503 10.2843C32.931 7.66933 30.9979 4.87984 28.205 4.87984L10.6518 4.87984C9.15471 4.87984 7.90465 5.68139 7.21802 6.82795L5.87767 3.30951C5.17601 1.46767 3.40981 0.250488 1.43885 0.250488L0.800781 0.250488C0.386567 0.250488 0.0507812 0.586275 0.0507812 1.00049C0.0507813 1.4147 0.386567 1.75049 0.800781 1.75049H1.43885C2.7874 1.75049 3.99586 2.5833 4.47593 3.84351ZM13.609 28.5975C14.9232 28.5975 15.9886 27.5321 15.9886 26.2178C15.9886 24.9036 14.9232 23.8382 13.609 23.8382C12.2947 23.8382 11.2293 24.9036 11.2293 26.2178C11.2293 27.5321 12.2947 28.5975 13.609 28.5975ZM13.609 30.0975C15.7516 30.0975 17.4886 28.3605 17.4886 26.2178C17.4886 24.0752 15.7516 22.3382 13.609 22.3382C11.4663 22.3382 9.72933 24.0752 9.72933 26.2178C9.72933 28.3605 11.4663 30.0975 13.609 30.0975ZM27.6275 26.2178C27.6275 27.5321 26.5621 28.5975 25.2479 28.5975C23.9336 28.5975 22.8682 27.5321 22.8682 26.2178C22.8682 24.9036 23.9336 23.8382 25.2479 23.8382C26.5621 23.8382 27.6275 24.9036 27.6275 26.2178ZM29.1275 26.2178C29.1275 28.3605 27.3905 30.0975 25.2479 30.0975C23.1052 30.0975 21.3682 28.3605 21.3682 26.2178C21.3682 24.0752 23.1052 22.3382 25.2479 22.3382C27.3905 22.3382 29.1275 24.0752 29.1275 26.2178Z" fill="black"/>
</svg>
