<svg width="22" height="21" viewBox="0 0 22 21" fill="none" xmlns="http://www.w3.org/2000/svg">
<path fill-rule="evenodd" clip-rule="evenodd" d="M20.8331 1.69097C21.126 1.39808 21.126 0.923208 20.8331 0.630314C20.5402 0.337421 20.0653 0.337421 19.7725 0.630314L11.001 9.40174L2.2296 0.630314C1.9367 0.337421 1.46183 0.337421 1.16894 0.630314C0.876044 0.923208 0.876044 1.39808 1.16894 1.69097L9.94036 10.4624L1.03412 19.3686C0.74123 19.6615 0.74123 20.1364 1.03412 20.4293C1.32702 20.7222 1.80189 20.7222 2.09478 20.4293L11.001 11.5231L19.9073 20.4293C20.2002 20.7222 20.675 20.7222 20.9679 20.4293C21.2608 20.1364 21.2608 19.6615 20.9679 19.3686L12.0617 10.4624L20.8331 1.69097Z" fill="black"/>
</svg>
