<svg width="28" height="24" viewBox="0 0 28 24" fill="none" xmlns="http://www.w3.org/2000/svg">
<path fill-rule="evenodd" clip-rule="evenodd" d="M23.9099 3.40381C21.3715 0.865404 17.2559 0.865405 14.7175 3.40381C14.1317 3.9896 13.182 3.9896 12.5962 3.40381C10.0578 0.865402 5.9422 0.865395 3.4038 3.4038C0.865393 5.9422 0.865403 10.0578 3.40382 12.5962L11.8891 21.0815C12.8654 22.0578 14.4483 22.0578 15.4246 21.0815L23.9099 12.5962C26.4483 10.0578 26.4483 5.94222 23.9099 3.40381ZM24.9706 2.34315C21.8464 -0.781043 16.7811 -0.781042 13.6569 2.34315C10.5327 -0.781042 5.46733 -0.781055 2.34314 2.34314C-0.781059 5.46733 -0.781038 10.5327 2.34316 13.6569L10.8284 22.1421C12.3905 23.7042 14.9232 23.7042 16.4853 22.1421L24.9706 13.6569C28.0948 10.5327 28.0948 5.46735 24.9706 2.34315Z" fill="black"/>
</svg>
