<svg width="14" height="16" viewBox="0 0 14 16" fill="none" xmlns="http://www.w3.org/2000/svg">
<path fill-rule="evenodd" clip-rule="evenodd" d="M7.12988 14.3939L10.9064 10.6173C12.9921 8.53163 12.9921 5.15001 10.9064 3.06429C8.82069 0.97857 5.43907 0.97857 3.35335 3.06429C1.26763 5.15001 1.26763 8.53163 3.35335 10.6173L7.12988 14.3939ZM2.29269 2.00363C-0.378814 4.67513 -0.378814 9.0065 2.29269 11.678L6.25039 15.6357C6.73612 16.1214 7.52364 16.1214 8.00937 15.6357L11.9671 11.678C14.6386 9.0065 14.6386 4.67513 11.9671 2.00363C9.29556 -0.667876 4.9642 -0.667876 2.29269 2.00363Z" fill="black"/>
<path fill-rule="evenodd" clip-rule="evenodd" d="M7.28916 7.6379C7.64139 7.6379 7.92692 7.35236 7.92692 7.00014C7.92692 6.64792 7.64139 6.36239 7.28916 6.36239C6.93694 6.36239 6.65141 6.64792 6.65141 7.00014C6.65141 7.35236 6.93694 7.6379 7.28916 7.6379ZM7.28916 9.1379C8.46981 9.1379 9.42692 8.18079 9.42692 7.00014C9.42692 5.81949 8.46981 4.86239 7.28916 4.86239C6.10851 4.86239 5.15141 5.81949 5.15141 7.00014C5.15141 8.18079 6.10851 9.1379 7.28916 9.1379Z" fill="black"/>
</svg>
