<svg width="10" height="17" viewBox="0 0 10 17" fill="none" xmlns="http://www.w3.org/2000/svg">
<path d="M0.147339 8.58861C-0.261386 9.39205 0.20268 9.77611 1.2615 10.4322C2.16163 10.9883 3.40514 11.1916 4.20392 11.273C3.87654 11.5877 5.37675 10.1448 1.05613 14.3007C0.140004 15.1789 1.61488 16.5877 2.53034 15.7283L5.0087 13.3379C5.9575 14.2507 6.86696 15.1255 7.48705 15.7316C8.40318 16.5944 9.87739 15.1975 8.97126 14.3041C8.90325 14.2394 5.61278 11.083 5.81348 11.2763C6.62226 11.195 7.8471 10.9796 8.73656 10.4355L8.73589 10.4349C9.79471 9.77544 10.2588 9.39205 9.85605 8.58861C9.61269 8.13254 8.95659 7.75115 8.08313 8.41058C8.08313 8.41058 6.90363 9.31404 5.00136 9.31404C3.09843 9.31404 1.91959 8.41058 1.91959 8.41058C1.0468 7.74782 0.38804 8.13254 0.147339 8.58861V8.58861Z" fill="black"/>
<path d="M5.00037 8.09582C7.31937 8.09582 9.21297 6.28356 9.21297 4.05258C9.21297 1.81226 7.31937 0 5.00037 0C2.68071 0 0.787109 1.81226 0.787109 4.05258C0.787109 6.28356 2.68071 8.09582 5.00037 8.09582ZM5.00037 2.05296C6.13987 2.05296 7.06934 2.94709 7.06934 4.05258C7.06934 5.14873 6.13987 6.04286 5.00037 6.04286C3.86088 6.04286 2.93141 5.14873 2.93141 4.05258C2.93075 2.94642 3.86021 2.05296 5.00037 2.05296V2.05296Z" fill="black"/>
</svg>
