<svg width="28" height="36" viewBox="0 0 28 36" fill="none" xmlns="http://www.w3.org/2000/svg">
<path fill-rule="evenodd" clip-rule="evenodd" d="M24.1594 24.4359C24.1659 24.5069 24.1572 24.6094 24.117 24.7987C24.0036 25.3329 23.6948 26.504 22.7283 28.322C22.2402 29.2403 21.7343 30.0087 21.1957 30.5108C20.6701 31.0007 20.1748 31.1851 19.6517 31.0937C18.2642 30.8513 16.486 29.7398 14.6051 27.9037C12.7449 26.0877 10.8585 23.6357 9.247 20.8514L9.1976 20.7661C7.61033 18.0003 6.442 15.1662 5.80241 12.6663C5.14901 10.1124 5.07401 8.01051 5.55895 6.68475C5.74137 6.18604 6.14867 5.84934 6.83582 5.63908C7.53989 5.42365 8.45824 5.36979 9.49762 5.40617C11.5553 5.47821 12.7239 5.79636 13.2433 5.96523C13.4273 6.02506 13.5204 6.0688 13.5786 6.10993C13.6207 6.13961 13.6567 6.17587 13.6928 6.25933C14.0395 7.06175 14.2329 8.09098 14.3101 9.07697C14.3873 10.062 14.3435 10.9385 14.2541 11.4208C14.2531 11.423 14.2407 11.4593 14.1797 11.5297C14.1086 11.6119 13.9975 11.7102 13.8417 11.8201C13.5295 12.0402 13.1094 12.2574 12.6675 12.4528C12.2307 12.646 11.7966 12.8075 11.4698 12.9212C11.307 12.9779 11.1722 13.0221 11.0788 13.0521C11.0321 13.067 10.9958 13.0783 10.9716 13.0858L10.9447 13.0941L10.9384 13.096L10.9371 13.0964L10.937 13.0964L10.937 13.0964L10.2949 13.2886L10.5069 13.9246C11.0492 15.5516 11.7827 17.1952 12.7086 18.8044L13.0332 19.3687L13.0408 19.3644C13.8937 20.7656 14.8425 22.0461 15.8558 23.1888L16.3006 23.6904L16.7881 23.2304L16.7881 23.2303L16.7882 23.2303L16.7882 23.2303L16.7892 23.2294L16.7939 23.2249L16.8146 23.2057C16.8331 23.1885 16.8611 23.1627 16.8974 23.1298C16.97 23.0638 17.0757 22.9693 17.2062 22.8566C17.4681 22.6304 17.825 22.3352 18.2107 22.0535C18.6009 21.7686 18.999 21.5133 19.3457 21.353C19.5188 21.273 19.6595 21.2259 19.7662 21.2054C19.8577 21.1878 19.8954 21.1952 19.8977 21.1955C20.3602 21.3592 21.1411 21.7596 21.9556 22.3189C22.7709 22.8787 23.5655 23.5609 24.0871 24.2623C24.1413 24.3353 24.1547 24.3846 24.1594 24.4359ZM16.4028 21.8328C16.6769 21.5976 17.0436 21.2961 17.444 21.0037C17.863 20.6977 18.3406 20.3855 18.8003 20.173C19.0305 20.0666 19.2757 19.9759 19.5207 19.9288C19.7619 19.8824 20.0473 19.8697 20.3274 19.9685C20.93 20.1812 21.8155 20.6457 22.6915 21.2472C23.5684 21.8494 24.4903 22.6259 25.1303 23.4867C25.5512 24.0527 25.4864 24.6083 25.3887 25.0687C25.2508 25.7181 24.9012 27.0042 23.8762 28.9322C23.3687 29.8869 22.7816 30.8097 22.0821 31.4617C21.3696 32.1258 20.4815 32.5584 19.428 32.3743C17.646 32.063 15.6331 30.724 13.697 28.8339C11.8683 27.0487 10.0398 24.7049 8.45172 22.0619L8.44631 22.065L8.12131 21.5021C6.45833 18.6218 5.22264 15.6451 4.54297 12.9885C3.87047 10.3599 3.71534 7.94063 4.33806 6.23818C4.70543 5.23381 5.52409 4.68095 6.45545 4.39598C7.36988 4.11618 8.46256 4.06914 9.54311 4.10697C11.7253 4.18336 13.0139 4.52364 13.6453 4.72895L13.4447 5.34575L13.6453 4.72895C14.0929 4.87449 14.6064 5.09619 14.8861 5.74371C15.3116 6.72836 15.5231 7.91496 15.6062 8.9755C15.6891 10.0349 15.6486 11.034 15.5315 11.6622C15.477 11.9542 15.3233 12.195 15.1625 12.3807C14.9992 12.5693 14.7981 12.7363 14.5909 12.8825C14.177 13.1744 13.6678 13.4319 13.1933 13.6417C12.7398 13.8423 12.2955 14.0091 11.9546 14.1289C12.4359 15.452 13.0514 16.7858 13.8026 18.0989L13.8351 18.1552C14.6104 19.4982 15.4763 20.7291 16.4028 21.8328Z" fill="black"/>
</svg>
