<svg width="24" height="24" viewBox="0 0 24 24" fill="none" xmlns="http://www.w3.org/2000/svg">
<path fill-rule="evenodd" clip-rule="evenodd" d="M11.8431 4.98571V3.14286C11.8431 2.12508 11.0181 1.3 10.0003 1.3C8.9825 1.3 8.15742 2.12507 8.15742 3.14286C8.15742 4.16064 8.9825 4.98571 10.0003 4.98571H11.8431ZM10.0003 0C8.26453 0 6.85742 1.4071 6.85742 3.14286C6.85742 4.20585 7.38515 5.14558 8.1929 5.71436H3.92857C1.75888 5.71436 0 7.47324 0 9.64293C0 10.8233 0.867663 11.8011 2 11.9732V21C2 22.6569 3.34315 24 5 24H19C20.6569 24 22 22.6569 22 21V11.9732C23.1323 11.8011 24 10.8233 24 9.64293C24 7.47324 22.2411 5.71436 20.0714 5.71436H16.9507C17.7584 5.14558 18.2861 4.20585 18.2861 3.14286C18.2861 1.4071 16.879 0 15.1433 0C14.0803 0 13.1406 0.527728 12.5718 1.33548C12.003 0.527728 11.0633 0 10.0003 0ZM12 12.3H3.3V21C3.3 21.9389 4.06112 22.7 5 22.7H12L12 12.3ZM13.3 22.7L13.3 12.3H20.7V21C20.7 21.9389 19.9389 22.7 19 22.7H13.3ZM21.6429 10.7001H13.3V7.01436H20.0714C21.5231 7.01436 22.7 8.19121 22.7 9.64293C22.7 10.2268 22.2267 10.7001 21.6429 10.7001ZM12 10.7001V7.01436H3.92857C2.47685 7.01436 1.3 8.19121 1.3 9.64293C1.3 10.2268 1.7733 10.7001 2.35714 10.7001H12ZM13.3004 4.98571V3.14286C13.3004 2.12508 14.1255 1.3 15.1433 1.3C16.1611 1.3 16.9861 2.12507 16.9861 3.14286C16.9861 4.16064 16.1611 4.98571 15.1433 4.98571H13.3004Z" fill="black"/>
</svg>
