<svg width="26" height="26" viewBox="0 0 26 26" fill="none" xmlns="http://www.w3.org/2000/svg">
<path fill-rule="evenodd" clip-rule="evenodd" d="M25.9999 10.5C25.9999 16.299 21.2989 21 15.4999 21C12.8782 21 10.4808 20.0391 8.6409 18.4503C8.61041 18.5004 8.57351 18.5477 8.53022 18.591L1.59088 25.5303C1.29798 25.8232 0.82311 25.8232 0.530217 25.5303C0.237323 25.2374 0.237324 24.7626 0.530217 24.4697L7.46956 17.5303C7.51137 17.4885 7.55691 17.4527 7.60508 17.4228C5.98318 15.5746 4.99989 13.1521 4.99989 10.5C4.99989 4.70101 9.7009 0 15.4999 0C21.2989 0 25.9999 4.70101 25.9999 10.5ZM24.4999 10.5C24.4999 15.4706 20.4704 19.5 15.4999 19.5C10.5293 19.5 6.49989 15.4706 6.49989 10.5C6.49989 5.52944 10.5293 1.5 15.4999 1.5C20.4704 1.5 24.4999 5.52944 24.4999 10.5Z" fill="black"/>
</svg>
