<svg width="15" height="9" viewBox="0 0 15 9" fill="none" xmlns="http://www.w3.org/2000/svg">
<path d="M14.9205 7.72897C14.9023 7.68983 14.8854 7.65736 14.8697 7.63135C14.6094 7.16263 14.1121 6.58731 13.378 5.90523L13.3625 5.88961L13.3547 5.88195L13.3468 5.8741H13.339C13.0058 5.55649 12.7948 5.34293 12.7064 5.2336C12.5448 5.02532 12.5086 4.8145 12.5969 4.60089C12.6593 4.4395 12.8938 4.09866 13.2998 3.57792C13.5134 3.30194 13.6825 3.08075 13.8074 2.91411C14.7082 1.71653 15.0988 0.951266 14.9789 0.618008L14.9324 0.54013C14.9011 0.493244 14.8204 0.450352 14.6904 0.411236C14.5601 0.372201 14.3936 0.365746 14.1904 0.39176L11.9413 0.407297C11.9048 0.394385 11.8528 0.395589 11.785 0.411236C11.7173 0.426882 11.6834 0.434733 11.6834 0.434733L11.6443 0.454292L11.6132 0.477789C11.5872 0.493326 11.5585 0.520653 11.5273 0.559716C11.4962 0.598641 11.4702 0.644322 11.4494 0.696378C11.2045 1.32638 10.9261 1.91212 10.6136 2.45357C10.421 2.77643 10.244 3.05624 10.0824 3.29316C9.92108 3.52999 9.78571 3.70449 9.67645 3.81634C9.56704 3.9283 9.46829 4.01799 9.3796 4.08575C9.29106 4.15354 9.22346 4.18218 9.17666 4.1717C9.12975 4.16122 9.08557 4.15083 9.04375 4.14043C8.9709 4.09355 8.91231 4.02978 8.86813 3.94909C8.82376 3.86839 8.79389 3.76683 8.77827 3.64447C8.76273 3.52203 8.75354 3.41672 8.75092 3.32817C8.74848 3.23974 8.7496 3.11464 8.75488 2.95325C8.7603 2.79178 8.76273 2.68253 8.76273 2.62525C8.76273 2.42736 8.76659 2.2126 8.77433 1.98091C8.78221 1.74922 8.78858 1.56565 8.79392 1.43041C8.79922 1.29503 8.80169 1.1518 8.80169 1.00081C8.80169 0.849809 8.7925 0.731391 8.77433 0.645444C8.75639 0.559606 8.72884 0.476284 8.69254 0.395507C8.65602 0.314811 8.60257 0.252389 8.53244 0.208075C8.46216 0.163815 8.37479 0.128692 8.27082 0.102596C7.99484 0.0401459 7.64342 0.00636328 7.21639 0.00111124C6.24802 -0.00928343 5.62579 0.0532486 5.34984 0.188626C5.2405 0.245824 5.14156 0.323975 5.0531 0.422834C4.95935 0.537421 4.94628 0.599954 5.01395 0.610239C5.32639 0.657042 5.54758 0.769004 5.67776 0.946014L5.72467 1.03981C5.76116 1.10749 5.7976 1.2273 5.83406 1.39909C5.87047 1.57087 5.89397 1.7609 5.90431 1.96907C5.9303 2.34921 5.9303 2.67462 5.90431 2.94532C5.87824 3.21613 5.85362 3.42695 5.83012 3.57794C5.80663 3.72894 5.7715 3.8513 5.72467 3.94499C5.67776 4.0387 5.64655 4.09598 5.6309 4.11677C5.61528 4.13756 5.60226 4.15066 5.59192 4.15581C5.52425 4.18174 5.45386 4.19495 5.38102 4.19495C5.30807 4.19495 5.2196 4.15846 5.11549 4.08553C5.01141 4.01261 4.90338 3.91243 4.79142 3.78485C4.67946 3.65725 4.55319 3.47892 4.41256 3.24986C4.27205 3.02079 4.12625 2.75006 3.97525 2.43768L3.85032 2.21113C3.77223 2.06538 3.66554 1.85317 3.53017 1.57467C3.39471 1.29607 3.27498 1.02657 3.17089 0.766241C3.12929 0.656905 3.06678 0.573666 2.98349 0.516386L2.9444 0.492889C2.91841 0.472099 2.8767 0.450024 2.81947 0.426499C2.76216 0.403002 2.70237 0.386151 2.63984 0.375784L0.499929 0.391322C0.281258 0.391322 0.132888 0.44086 0.0547635 0.539801L0.0234974 0.586605C0.00787807 0.612673 0 0.654307 0 0.711614C0 0.768894 0.0156194 0.839195 0.0468854 0.922435C0.359273 1.65663 0.698987 2.3647 1.06603 3.04675C1.43307 3.7288 1.75202 4.27822 2.02269 4.6945C2.29342 5.11108 2.56937 5.50424 2.85055 5.8738C3.13172 6.24349 3.31784 6.48041 3.4089 6.58449C3.50008 6.68877 3.57169 6.76673 3.62375 6.81878L3.81903 7.00619C3.94398 7.13117 4.12748 7.28085 4.36959 7.45524C4.61176 7.62973 4.87986 7.80152 5.17403 7.97087C5.46825 8.13995 5.81054 8.27792 6.20108 8.38463C6.59156 8.49145 6.97162 8.53432 7.34132 8.51364H8.23947C8.42163 8.49791 8.55963 8.44063 8.65343 8.34177L8.6845 8.30262C8.7054 8.27155 8.72496 8.22327 8.74301 8.1583C8.76128 8.09323 8.77037 8.02153 8.77037 7.94354C8.76503 7.7197 8.78207 7.51796 8.82103 7.33835C8.85995 7.1588 8.90432 7.02342 8.95394 6.93225C9.00353 6.84116 9.0595 6.76429 9.12179 6.70198C9.18421 6.63953 9.22869 6.6017 9.25479 6.58868C9.28072 6.57558 9.30142 6.56669 9.31704 6.56135C9.442 6.51972 9.58906 6.56004 9.75843 6.6825C9.92768 6.80486 10.0864 6.95594 10.2349 7.13549C10.3833 7.31521 10.5616 7.51684 10.7698 7.74068C10.9782 7.96461 11.1603 8.13106 11.3165 8.24056L11.4726 8.33427C11.5769 8.3968 11.7123 8.45409 11.8789 8.50614C12.0453 8.55817 12.191 8.57119 12.3162 8.54517L14.3154 8.51399C14.5131 8.51399 14.667 8.48125 14.7762 8.41628C14.8855 8.35121 14.9505 8.27951 14.9714 8.20152C14.9923 8.12345 14.9935 8.03488 14.9754 7.93586C14.9569 7.83708 14.9386 7.76801 14.9205 7.72897Z" fill="black"/>
</svg>
