<svg xmlns="http://www.w3.org/2000/svg" viewBox="0 0 32.808334 11.641667" height="44" width="124"><path d="M11.893 8.582c0 .067-.005.12-.014.158a.177.177 0 0 1-.041.085.266.266 0 0 1-.082.052.695.695 0 0 1-.126.04 1.79 1.79 0 0 1-.148.026c-.053.007-.104.01-.157.01-.16 0-.298-.021-.411-.063a.67.67 0 0 1-.281-.192.794.794 0 0 1-.16-.326 1.903 1.903 0 0 1-.049-.463V6.108H9.99c-.034 0-.063-.019-.083-.055a.388.388 0 0 1-.03-.18c0-.043.001-.08.007-.108a.343.343 0 0 1 .023-.075.091.091 0 0 1 .036-.041.094.094 0 0 1 .05-.012h.431v-.733c0-.016.004-.032.012-.045a.102.102 0 0 1 .046-.036.29.29 0 0 1 .087-.022c.037-.005.082-.007.139-.007.057 0 .104.002.14.007a.283.283 0 0 1 .087.022c.02.01.035.023.044.036a.078.078 0 0 1 .014.045v.733h.787c.019 0 .034.003.048.012a.104.104 0 0 1 .035.04c.01.02.018.045.022.076a.663.663 0 0 1 .007.109c0 .083-.01.143-.03.179-.02.036-.048.055-.082.055h-.787v1.718c0 .211.032.372.094.48.062.108.174.162.336.162a.582.582 0 0 0 .14-.015 1.152 1.152 0 0 0 .19-.065.149.149 0 0 1 .061-.016c.012 0 .022.002.033.008.01.006.017.017.023.033a.594.594 0 0 1 .022.169zm2.886-.246c0 .039-.001.073-.003.1a.265.265 0 0 1-.033.124.324.324 0 0 1-.055.066.853.853 0 0 1-.145.108 1.37 1.37 0 0 1-.232.114 1.715 1.715 0 0 1-.592.112 1.49 1.49 0 0 1-.59-.11 1.113 1.113 0 0 1-.431-.32 1.465 1.465 0 0 1-.265-.517 2.48 2.48 0 0 1-.091-.709c0-.303.036-.564.11-.783.075-.218.177-.397.306-.536.13-.14.282-.243.457-.31a1.571 1.571 0 0 1 1.111-.002 1.108 1.108 0 0 1 .34.204c.028.028.047.05.057.066.01.016.02.035.026.057a.39.39 0 0 1 .013.074c.002.027.004.062.004.103 0 .09-.01.152-.03.187-.021.036-.046.053-.077.053-.034 0-.073-.019-.118-.057a1.35 1.35 0 0 0-.42-.25.944.944 0 0 0-.344-.058c-.272 0-.482.104-.627.314-.145.208-.218.511-.218.908 0 .198.018.373.056.522.038.15.094.274.168.375a.67.67 0 0 0 .27.224.857.857 0 0 0 .364.074.89.89 0 0 0 .345-.063c.098-.04.182-.087.255-.136.072-.05.134-.094.183-.134.049-.04.086-.06.114-.06.016 0 .03.004.041.013a.103.103 0 0 1 .03.046.326.326 0 0 1 .017.083c.003.033.005.072.005.118zm11.59.23c0 .162-.027.27-.081.324-.054.054-.151.08-.293.08-.138 0-.233-.027-.285-.08-.053-.052-.079-.157-.079-.315 0-.163.027-.27.08-.325.055-.054.152-.08.294-.08.138 0 .233.025.285.078.052.053.079.16.079.317zm2.849-2.598c0 .05-.001.093-.004.127a.3.3 0 0 1-.014.08.102.102 0 0 1-.026.045.057.057 0 0 1-.042.015.186.186 0 0 1-.067-.015 1.367 1.367 0 0 0-.2-.06.621.621 0 0 0-.134-.014.446.446 0 0 0-.168.034.647.647 0 0 0-.173.115 1.44 1.44 0 0 0-.19.21c-.066.087-.14.194-.22.32v2.032a.079.079 0 0 1-.013.047.113.113 0 0 1-.045.033.377.377 0 0 1-.087.02 1.08 1.08 0 0 1-.14.006c-.056 0-.102-.002-.138-.007a.401.401 0 0 1-.088-.02.1.1 0 0 1-.046-.032.086.086 0 0 1-.011-.047V5.768c0-.019.004-.034.01-.047a.096.096 0 0 1 .041-.034.231.231 0 0 1 .08-.02.888.888 0 0 1 .127-.006c.05 0 .093.001.126.005.034.003.06.01.078.021.018.01.032.022.04.034a.095.095 0 0 1 .012.047v.45c.084-.124.164-.225.237-.304a1.41 1.41 0 0 1 .211-.183.679.679 0 0 1 .395-.119.94.94 0 0 1 .219.024c.04.01.078.02.11.032a.239.239 0 0 1 .071.034.081.081 0 0 1 .027.032.17.17 0 0 1 .013.04.36.36 0 0 1 .007.07l.001.125zm3.285 2.889a.089.089 0 0 1-.011.047.102.102 0 0 1-.044.033.35.35 0 0 1-.08.02.842.842 0 0 1-.122.006.896.896 0 0 1-.128-.007.347.347 0 0 1-.08-.02.083.083 0 0 1-.038-.032.096.096 0 0 1-.01-.047v-.409a1.926 1.926 0 0 1-.523.424 1.12 1.12 0 0 1-.521.134c-.206 0-.38-.034-.52-.103a.905.905 0 0 1-.342-.28 1.14 1.14 0 0 1-.187-.411 2.499 2.499 0 0 1-.056-.572V5.768a.08.08 0 0 1 .011-.047.11.11 0 0 1 .047-.034.277.277 0 0 1 .09-.02 1.04 1.04 0 0 1 .136-.006c.055 0 .1.001.137.005.036.003.066.01.088.021a.12.12 0 0 1 .045.034.079.079 0 0 1 .015.047v1.799c0 .18.012.325.04.434a.793.793 0 0 0 .119.278.559.559 0 0 0 .205.179.622.622 0 0 0 .288.063c.142 0 .283-.05.424-.151.141-.1.29-.248.448-.443V5.768c0-.019.004-.034.012-.047a.11.11 0 0 1 .047-.034.27.27 0 0 1 .086-.02c.037-.005.082-.006.14-.006.055 0 .1.001.137.005a.22.22 0 0 1 .085.021.14.14 0 0 1 .047.034.07.07 0 0 1 .015.047zm-12.026-.03a.094.094 0 0 1-.021.06.146.146 0 0 1-.068.043.679.679 0 0 1-.131.025 2.04 2.04 0 0 1-.21.008c-.088 0-.16-.002-.214-.008a.69.69 0 0 1-.132-.025.143.143 0 0 1-.07-.044.099.099 0 0 1-.018-.06V7.013c0-.104-.01-.197-.03-.281a.636.636 0 0 0-.089-.218.433.433 0 0 0-.15-.142.448.448 0 0 0-.216-.05.508.508 0 0 0-.312.121 2.04 2.04 0 0 0-.341.35v2.034a.093.093 0 0 1-.022.06.143.143 0 0 1-.07.043.69.69 0 0 1-.132.026 1.995 1.995 0 0 1-.206.008 2.05 2.05 0 0 1-.211-.008.69.69 0 0 1-.132-.026.142.142 0 0 1-.07-.043.094.094 0 0 1-.022-.06V7.012c0-.104-.009-.197-.029-.281a.637.637 0 0 0-.088-.218.415.415 0 0 0-.15-.142.458.458 0 0 0-.216-.05c-.106 0-.21.04-.315.121-.106.08-.22.197-.34.35v2.034a.094.094 0 0 1-.02.06.142.142 0 0 1-.071.043.685.685 0 0 1-.131.026 2.04 2.04 0 0 1-.21.008 2.04 2.04 0 0 1-.21-.008.71.71 0 0 1-.13-.026.142.142 0 0 1-.07-.043.093.093 0 0 1-.022-.06V5.763c0-.022.006-.042.018-.06.01-.017.031-.031.06-.043a.64.64 0 0 1 .115-.026c.047-.006.107-.008.177-.008.074 0 .134.002.182.008a.483.483 0 0 1 .112.026.13.13 0 0 1 .056.044.106.106 0 0 1 .018.06v.353c.169-.183.337-.319.506-.41.168-.091.344-.137.527-.137.126 0 .24.013.34.04a.87.87 0 0 1 .473.288.99.99 0 0 1 .144.23c.092-.099.182-.183.27-.253a1.6 1.6 0 0 1 .261-.174 1.139 1.139 0 0 1 .52-.13c.202 0 .374.033.514.102a.89.89 0 0 1 .337.28c.087.117.148.255.184.413.036.159.055.325.055.502zm1.71 0a.093.093 0 0 1-.02.06.142.142 0 0 1-.07.043.694.694 0 0 1-.132.025 2.041 2.041 0 0 1-.21.008c-.084 0-.154-.002-.21-.008a.696.696 0 0 1-.13-.025.142.142 0 0 1-.07-.044.093.093 0 0 1-.022-.06V5.77a.09.09 0 0 1 .022-.06.142.142 0 0 1 .07-.044.583.583 0 0 1 .13-.03 1.72 1.72 0 0 1 .21-.01c.085 0 .155.004.21.01a.575.575 0 0 1 .131.03.143.143 0 0 1 .07.045.093.093 0 0 1 .022.06zm.07-4.103c0 .174-.034.293-.106.36-.071.067-.202.1-.396.1s-.326-.032-.393-.096c-.068-.065-.102-.18-.102-.347 0-.174.035-.295.105-.363.07-.067.202-.1.398-.1.191 0 .323.032.392.098.069.064.103.18.103.348zm2.76 1.325c0 .082-.003.15-.008.203a.739.739 0 0 1-.02.123.13.13 0 0 1-.036.062.09.09 0 0 1-.057.016.203.203 0 0 1-.062-.012 2.403 2.403 0 0 0-.171-.051.507.507 0 0 0-.114-.012.367.367 0 0 0-.144.03.604.604 0 0 0-.15.09 1.126 1.126 0 0 0-.161.165 2.685 2.685 0 0 0-.18.254v1.91a.093.093 0 0 1-.022.06.142.142 0 0 1-.07.042.685.685 0 0 1-.131.026 2.043 2.043 0 0 1-.21.008c-.084 0-.154-.002-.21-.008a.706.706 0 0 1-.13-.026.143.143 0 0 1-.07-.043.094.094 0 0 1-.022-.06V5.763c0-.022.006-.042.018-.06.01-.017.031-.031.06-.043a.64.64 0 0 1 .115-.026c.047-.006.107-.008.177-.008.074 0 .134.002.182.008a.482.482 0 0 1 .112.026.13.13 0 0 1 .056.044.106.106 0 0 1 .018.06v.381c.08-.115.156-.208.226-.282a1.36 1.36 0 0 1 .203-.177.624.624 0 0 1 .193-.09.714.714 0 0 1 .288-.02.858.858 0 0 1 .203.044c.027.01.047.02.06.032a.13.13 0 0 1 .027.038c.006.014.01.033.015.057.005.024.008.06.01.108.003.048.004.112.004.194" fill="#f30" stroke-width=".312"/><path d="M4.299.348l.248.408.443.259.433.973-.048.32.152.131.249.024.081-.25.24-.253-.06-.43.275-.346.192.54-.197.477-.302.177-.067.1.247.023.318.16.165-.3.39-.298.324-.123.073-.173.36-.044-.206.199-.12.28-.29.252-.325.06-.233.252.37.425.097.355.442-.042.382.273.357.014.15.182-.207-.03-.375.128-.335-.185-.262.089-.163-.03-.083.508-.598.443-.748.223-.363-.11-.27-.268-.198-.113-.276-.047-.197.117-.189.276-.194.006-.154-.062.27-.101.242-.4.28-.08.009-.195-.036-.205-.36.032-.208.162-.295-.008.036-.127.282-.148.175-.222.248.02.156.054.069-.232.625-.437.413-.014.472.18.284.335-.02.343-.416.668-.268.055-.504-.29-.058-.486.198-.304.497.02-.168.532-.08-.04-.092-.29-.147.122.027.354.266.206.103.008.178-.15.146-.545-.167-.388-.488-.096-.578.355-.157.344.086.198.087.346.304.126.366.239.303-.022.734-.466.195-.468-.102-.517-.327-.37-.423-.267-.441-.088-.422.202-.206.21-.432.219-.504-.297-.387-.056-.301-.396.215.035.144.151.304-.04.267.06.117.272.201.118.16-.147-.014-.13-.156-.17-.152-.32-.208-.122-.112-.265v-.317l.293.448.34.195-.008.272.143.118.069.112.18-.292-.033-.373-.236-.299-.096-.7-.422-.423.011-.378zm-1.523 6.18l-.33.784-.36-.784H1.38v1.724h.344v-.977l.435.977h.295l.389-.956v.956h.61V6.528h-.677zm3.652.977a.544.544 0 0 1-.12-.013V6.88a.364.364 0 0 1 .112-.013c.17 0 .264.065.264.28 0 .24-.054.357-.256.357zm.065-.977h-.795v1.724h.61v-.424c.05.01.112.017.196.017.4 0 .825-.207.825-.727 0-.436-.33-.59-.836-.59zm-1.58 0l-.578.945v-.945H3.75v1.724h.512l.582-.97v.97h.586V6.528h-.517z" fill="#f30" fill-rule="evenodd" stroke-width=".312"/><path d="M11.103 10.156q0 .03-.003.052-.002.02-.007.032-.005.013-.013.017-.007.005-.016.005h-.226v.66q0 .008-.006.016-.006.007-.02.011-.014.005-.039.007-.024.003-.061.003-.036 0-.06-.003-.025-.002-.04-.007-.014-.005-.02-.01-.005-.009-.005-.018v-.659h-.226q-.01 0-.018-.005-.007-.006-.012-.018-.005-.012-.008-.033-.002-.022-.002-.053 0-.028.003-.047.003-.02.008-.032t.012-.017q.007-.006.017-.006h.703q.01 0 .016.006.008.005.013.017.005.012.007.033.003.02.003.049zm1.029.338q0 .107-.03.195-.03.088-.091.152-.062.064-.154.099-.093.035-.216.035-.12 0-.208-.031t-.147-.09q-.058-.06-.086-.146-.028-.086-.028-.197 0-.107.03-.196.031-.089.092-.152.062-.063.153-.098.092-.035.216-.035.12 0 .209.031.088.03.146.09.058.058.086.145.028.086.028.198zm-.26.009q0-.062-.011-.114-.01-.052-.035-.09-.025-.04-.068-.06-.04-.023-.104-.023-.056 0-.099.02-.042.019-.069.056-.027.037-.041.09-.013.051-.013.118 0 .062.011.114.011.052.035.09.025.04.067.06.043.021.105.021.057 0 .1-.019.042-.02.069-.056.027-.036.04-.088.013-.053.013-.12zm1.361-.013q0 .112-.026.202-.025.09-.074.152-.05.063-.123.097t-.168.034q-.039 0-.072-.008-.032-.007-.063-.021-.03-.015-.06-.037-.03-.021-.063-.05v.394q0 .009-.006.017-.006.008-.02.012-.015.006-.04.008-.023.003-.06.003-.038 0-.062-.003t-.039-.008q-.014-.005-.02-.012-.006-.008-.006-.017v-1.17q0-.009.005-.016.005-.008.017-.012.013-.005.033-.007.021-.003.053-.003.03 0 .05.003.02.002.033.007.013.005.018.012.005.007.005.016v.099q.04-.038.076-.066.039-.029.078-.048.039-.02.08-.029.042-.009.09-.009.098 0 .167.037.07.035.113.098.044.063.064.147.02.083.02.178zm-.263.017q0-.053-.01-.102-.007-.05-.028-.089-.02-.038-.055-.06-.033-.024-.083-.024-.025 0-.05.008-.024.007-.05.022-.025.016-.053.042-.027.025-.057.063v.276q.053.063.102.097.048.034.1.034.05 0 .083-.023.036-.024.058-.061.022-.039.032-.087.01-.048.01-.096zm1.05-.351q0 .029-.002.05-.003.02-.008.032t-.012.017q-.008.005-.018.005h-.29v.661q0 .01-.007.017-.006.007-.021.012-.014.005-.038.007-.024.003-.061.003-.038 0-.062-.003-.024-.002-.039-.007-.014-.005-.02-.012-.006-.008-.006-.017v-.793q0-.038.017-.056.017-.02.053-.02h.475q.01 0 .017.006.007.005.012.017t.008.033q.003.02.003.049zm1.037.338q0 .107-.03.195-.03.088-.091.152-.062.064-.154.099t-.216.035q-.12 0-.208-.031t-.147-.09q-.058-.06-.086-.146-.028-.086-.028-.197 0-.107.03-.196.031-.089.092-.152.062-.063.153-.098.093-.035.216-.035.12 0 .21.031.087.03.145.09.058.058.086.145.028.086.028.198zm-.26.009q0-.062-.011-.114-.01-.052-.035-.09-.025-.04-.067-.06-.042-.023-.105-.023-.056 0-.098.02-.043.019-.07.056-.027.037-.04.09-.014.051-.014.118 0 .062.011.114.011.052.035.09.025.04.068.06.042.021.104.021.057 0 .1-.019.042-.02.069-.056.027-.036.04-.088.013-.053.013-.12zm1.283.172q0 .072-.03.127-.027.054-.086.09-.058.037-.145.055-.088.02-.206.02-.04 0-.074-.002h-.065l-.063-.004-.067-.006q-.048-.004-.068-.026-.02-.022-.02-.068v-.722q0-.043.02-.064.018-.023.057-.028l.058-.004.071-.003.08-.003h.083q.107 0 .185.014t.128.043q.051.028.076.07.025.042.025.098 0 .076-.045.127-.043.05-.124.068.101.017.156.073.054.056.054.144zm-.277-.37q0-.025-.01-.045-.01-.02-.03-.033-.022-.014-.057-.02-.034-.009-.083-.009-.038 0-.073.002l-.058.005v.212h.136q.085 0 .13-.028.045-.03.045-.084zm.026.37q0-.03-.011-.053-.01-.023-.036-.038-.024-.015-.064-.022-.039-.008-.094-.008h-.132v.24l.033.005.037.002q.018 0 .035.002h.032q.053 0 .091-.008.038-.01.062-.027.025-.017.036-.04.01-.024.01-.054zm1.654.246q0 .009-.006.017-.006.007-.02.011-.014.005-.038.007-.024.003-.062.003-.037 0-.06-.003-.025-.002-.04-.007-.014-.005-.02-.011-.006-.008-.006-.017v-.837q0-.01.006-.016.006-.008.02-.013.015-.005.04-.007.023-.003.06-.003.038 0 .062.003.024.002.038.007.014.005.02.013.006.007.006.016zm-.957-.58l.07-.004q.034-.002.078-.002.11 0 .19.021t.133.06q.052.04.077.096.026.056.026.127 0 .074-.029.136-.028.061-.086.105-.058.043-.149.068-.09.023-.215.023h-.067q-.034 0-.067-.003-.032 0-.064-.003l-.059-.005q-.048-.005-.07-.027-.021-.022-.021-.068v-.782q0-.01.006-.016.006-.008.02-.013.014-.005.037-.007.023-.003.057-.003.073 0 .103.01.03.008.03.028zm.316.312q0-.033-.01-.059-.01-.026-.035-.044-.023-.019-.061-.028-.038-.009-.094-.009-.034 0-.063.002l-.053.003v.27l.057.005q.028.002.065.002.1 0 .147-.037.047-.038.047-.104zm1.789.271q0 .009-.006.016-.005.007-.019.011-.014.004-.038.006-.023.002-.06.002-.035 0-.06-.002-.025-.002-.04-.006-.016-.005-.023-.011-.006-.007-.006-.016v-.374l.002-.081q.003-.043.008-.083-.024.04-.052.078l-.057.075-.303.384-.017.018q-.008.007-.02.011-.013.004-.032.005-.019.002-.05.002-.035 0-.058-.002-.022-.002-.037-.006-.013-.005-.019-.011-.005-.008-.005-.017v-.84q0-.008.005-.015.006-.008.02-.013.016-.005.039-.007.024-.003.06-.003.071 0 .1.01.03.008.03.027v.371q0 .039-.004.08-.003.041-.008.08l.05-.074q.025-.038.053-.073l.305-.384q.008-.01.017-.017.01-.008.022-.012.015-.005.034-.007.02-.002.05-.002.036 0 .06.002.022.002.035.007.014.005.02.013.004.008.004.016zm-.074-1.24q0 .055-.02.104-.018.049-.061.086-.043.037-.113.059-.07.021-.17.021t-.168-.02q-.07-.02-.114-.054-.043-.036-.063-.085-.02-.051-.02-.111 0-.014.005-.023.006-.009.019-.015t.035-.008q.023-.003.057-.003.032 0 .053.003.022.003.033.01.01.005.015.014.005.008.005.02 0 .026.009.048.01.021.028.037.019.015.046.025.027.008.06.008.032 0 .059-.008.026-.008.044-.025.019-.016.028-.037.01-.023.01-.049 0-.011.004-.02.004-.008.015-.014.012-.007.031-.009.02-.003.05-.003.037 0 .06.003.024.002.038.008.014.006.019.015.006.008.006.023zm-.832.368zm2.467.878q0 .008-.006.014-.005.005-.019.008-.014.003-.039.005-.024.002-.061.002-.042 0-.07-.002-.027-.002-.043-.005-.016-.004-.023-.01-.007-.008-.01-.017l-.084-.2q-.015-.04-.033-.067-.017-.028-.039-.044-.02-.016-.048-.023-.027-.008-.062-.008h-.051v.342q0 .007-.007.013-.007.006-.022.01-.016.005-.04.007-.024.003-.058.003-.035 0-.06-.003-.023-.002-.038-.007t-.022-.01q-.006-.007-.006-.013v-.848q0-.007.006-.012.007-.007.022-.01.015-.006.039-.008.024-.003.06-.003.033 0 .057.003.024.002.04.007.015.004.022.01.007.007.007.013v.326h.05q.032 0 .057-.007.025-.008.045-.024.021-.017.039-.044.018-.027.034-.067l.075-.18q.003-.01.01-.017.007-.008.021-.011.015-.005.04-.007.026-.002.069-.002.037 0 .06.002.024.002.037.006.014.004.02.009.004.005.004.012 0 .01-.004.023t-.014.035l-.071.16q-.021.048-.045.082-.024.033-.049.054-.024.022-.049.035-.025.013-.048.02v.002q.031.013.058.027.027.014.051.036.026.023.048.057.023.032.045.08l.087.187.01.022.005.016.002.011.001.008zm1.045-.436q0 .107-.03.195-.03.088-.092.152-.06.064-.153.099t-.216.035q-.12 0-.208-.031-.089-.031-.147-.09-.058-.06-.086-.146-.028-.086-.028-.197 0-.107.03-.196.031-.089.092-.152.062-.063.153-.098.092-.035.216-.035.12 0 .209.031.088.03.145.09.059.058.087.145.028.086.028.198zm-.26.009q0-.062-.011-.114-.01-.052-.035-.09-.025-.04-.068-.06-.04-.023-.104-.023-.056 0-.099.02-.042.019-.069.056-.027.037-.041.09-.013.051-.013.118 0 .062.01.114.012.052.036.09.025.04.067.06.043.021.105.021.057 0 .1-.019.041-.02.069-.056.027-.036.04-.088.013-.053.013-.12zm1.723.413q.002.024-.024.033-.025.01-.089.01-.04 0-.063-.002-.023 0-.036-.005-.012-.004-.017-.01-.005-.008-.005-.019l-.054-.45-.006-.054-.005-.061-.004-.061-.005-.055.001-.024-.016.055-.018.061-.02.062-.016.055-.158.464q-.004.01-.012.02-.008.007-.023.013-.014.005-.037.007-.022.003-.056.003-.032 0-.054-.003-.02-.002-.036-.007-.014-.006-.022-.014-.008-.008-.011-.02l-.154-.463-.018-.055-.019-.06-.018-.062-.014-.056.001.024-.004.055-.005.061-.006.061-.005.055-.051.444q-.002.012-.007.02t-.02.012q-.014.005-.038.006-.024.002-.063.002-.035 0-.056-.002-.021-.002-.033-.007-.011-.006-.015-.013-.003-.008-.002-.02l.088-.784q.005-.04.028-.06.023-.02.07-.02h.128q.04 0 .068.005.028.006.05.02.02.014.035.038.014.025.025.061l.1.288q.01.028.018.059l.018.06q.01.03.016.06.009.028.015.053l.015-.055.016-.061.018-.061.019-.056.1-.287q.01-.034.022-.057.012-.024.032-.039.019-.015.047-.021.028-.008.07-.008h.126q.048 0 .07.02.025.02.03.06zm1.047.005q0 .009-.006.017-.006.007-.02.011-.015.005-.039.007-.024.003-.061.003-.036 0-.062-.003-.024-.002-.039-.007t-.02-.011q-.006-.008-.006-.017v-.674h-.338v.674q0 .009-.007.017-.006.007-.022.011-.014.005-.038.007-.024.003-.061.003t-.061-.003q-.024-.002-.04-.007-.013-.005-.02-.011-.005-.008-.005-.017v-.793q0-.038.018-.057.017-.02.053-.02h.705q.035 0 .052.02.017.02.017.057zm1.085 0q0 .009-.006.017-.006.007-.02.011-.014.005-.04.007-.023.003-.06.003t-.062-.003q-.024-.002-.039-.007-.014-.005-.02-.011-.005-.008-.005-.017v-.677h-.182q-.016.148-.04.26-.023.11-.054.19-.031.081-.07.135-.037.053-.082.084-.045.03-.098.044-.053.013-.11.013-.015 0-.024-.004-.009-.004-.014-.014-.005-.012-.007-.032t-.002-.055v-.056q.003-.021.007-.033t.011-.016q.007-.004.017-.004.028 0 .053-.01.026-.011.049-.038.023-.029.043-.074.02-.046.037-.115.017-.07.032-.165.015-.097.03-.225.001-.038.016-.057.016-.019.051-.019h.52q.035 0 .052.019.017.019.017.057zm1.08-.443q0 .043-.021.064-.02.02-.056.02h-.546q0 .054.013.098.014.043.043.074.03.03.077.046t.112.016q.067 0 .117-.008.05-.009.086-.02.037-.01.062-.02.024-.008.039-.008.009 0 .015.004.006.003.01.011t.005.025q.002.015.002.038l-.001.036-.003.024q-.002.01-.006.018-.004.007-.011.013-.006.007-.035.018-.03.011-.075.022-.045.01-.103.018-.058.008-.125.008-.12 0-.21-.028-.089-.028-.15-.085-.06-.058-.09-.145-.029-.087-.029-.205 0-.111.031-.2.031-.09.09-.153.06-.063.144-.096.086-.032.192-.032.113 0 .192.03.08.032.132.087.05.054.075.13.024.075.024.163zm-.245-.068q.003-.1-.043-.156-.045-.057-.14-.057-.05 0-.085.017t-.06.046q-.023.028-.036.068-.012.038-.014.082zm1.296.52q0 .008-.006.014-.005.005-.02.008-.013.003-.039.005-.024.002-.06.002-.043 0-.07-.002-.027-.002-.043-.005-.016-.004-.023-.01-.007-.008-.011-.017l-.084-.2q-.015-.04-.033-.067-.017-.028-.038-.044-.021-.016-.048-.023-.027-.008-.063-.008h-.05v.342q0 .007-.008.013-.007.006-.022.01-.015.005-.04.007-.023.003-.057.003-.036 0-.06-.003-.024-.002-.039-.007t-.022-.01q-.006-.007-.006-.013v-.848q0-.007.006-.012.007-.007.022-.01.015-.006.04-.008.023-.003.059-.003.034 0 .058.003.024.002.039.007.015.004.022.01.007.007.007.013v.326h.051q.032 0 .057-.007.025-.008.045-.024.02-.017.038-.044.018-.027.034-.067l.075-.18q.003-.01.01-.017.008-.008.022-.011.015-.005.04-.007.026-.002.068-.002.037 0 .06.002.025.002.038.006.014.004.019.009.005.005.005.012 0 .01-.004.023t-.014.035l-.072.16q-.02.048-.045.082-.023.033-.048.054-.024.022-.05.035-.025.013-.048.02v.002q.032.013.059.027.027.014.05.036.026.023.048.057.023.032.045.08l.088.187q.006.012.009.022l.006.016.002.011v.008zm.824-.142q0 .024-.002.041 0 .016-.004.027-.002.012-.006.019-.003.007-.015.018-.012.01-.04.026-.03.015-.067.027-.037.013-.082.02-.043.008-.089.008-.103 0-.184-.03-.08-.03-.133-.088-.055-.06-.083-.144-.027-.084-.027-.193 0-.126.033-.217.034-.092.095-.152.06-.06.142-.09.083-.029.181-.029.04 0 .079.007t.072.018q.034.012.06.026.027.014.038.024t.015.018q.005.007.007.018.003.01.004.028.003.016.003.04 0 .054-.01.076t-.027.022q-.017 0-.036-.013l-.045-.03q-.026-.015-.062-.028-.036-.014-.087-.014-.098 0-.15.072-.053.07-.053.207 0 .068.013.12.014.051.039.086.026.035.064.052.04.017.09.017.053 0 .09-.014.038-.015.066-.033.028-.017.047-.031.02-.015.032-.015.01 0 .015.005.006.005.01.017l.005.032q.002.02.002.05zm2.178.132q0 .008-.006.016-.005.008-.02.012-.014.005-.038.008t-.061.003q-.036 0-.06-.003-.025-.003-.039-.008-.014-.005-.02-.012-.006-.008-.006-.017v-.988h-.002l-.377.987q-.004.012-.013.02-.009.009-.025.013-.015.005-.039.006-.024.002-.058.002t-.058-.003q-.025-.002-.04-.007-.016-.006-.025-.013-.009-.008-.012-.018l-.363-.987H28.7v.988q0 .01-.006.017-.005.008-.02.012-.016.005-.04.008-.023.003-.06.003-.036 0-.06-.003t-.04-.008q-.013-.005-.02-.012-.005-.008-.005-.017V9.837q0-.048.028-.073.027-.026.072-.026h.173q.046 0 .08.008.032.007.056.024.024.016.04.043.017.026.029.066l.28.723h.005l.291-.722q.013-.039.028-.066.016-.027.037-.044.02-.017.049-.024.028-.008.065-.008h.178q.027 0 .046.007.02.007.032.02.013.012.02.03.006.019.006.042zm1.343.001q0 .009-.007.017-.006.007-.02.011-.016.005-.042.007-.025.003-.063.003-.039 0-.065-.003-.025-.002-.04-.007-.014-.005-.02-.011-.006-.008-.006-.017v-.64l.001-.072.003-.062h-.002l-.019.03-.024.037-.026.04-.028.038-.452.63q-.008.01-.017.018-.008.008-.023.012-.013.004-.033.005-.019.002-.05.002-.04 0-.063-.003-.024-.002-.038-.007-.013-.005-.018-.012-.006-.008-.006-.018v-1.15q0-.008.006-.015.008-.008.023-.012.016-.005.04-.007.026-.003.064-.003.04 0 .064.003.025.002.04.007.016.005.022.012.006.007.006.016v.644l-.001.064-.003.065h.002l.043-.067q.026-.04.054-.077l.452-.63q.007-.01.015-.016.008-.008.021-.012.014-.005.034-.007.02-.002.052-.002.038 0 .06.003.025.002.04.007.013.005.018.012.006.007.006.017zm1.175-.814q0 .102-.035.181-.034.08-.099.134-.065.053-.16.081-.095.028-.224.028h-.108v.388q0 .01-.007.017-.006.008-.021.012-.015.005-.04.008-.026.003-.065.003-.038 0-.064-.003-.025-.003-.04-.008t-.021-.012q-.006-.008-.006-.017V9.826q0-.044.024-.065.025-.023.065-.023h.306q.047 0 .088.004.042.003.1.014.058.01.118.04.06.029.102.074.042.044.064.104.023.06.023.133zm-.277.018q0-.064-.024-.105-.024-.042-.06-.061-.034-.02-.073-.025-.039-.006-.08-.006h-.112v.412h.118q.064 0 .106-.016.043-.016.07-.044.027-.029.041-.068.014-.04.014-.087z" style="-inkscape-font-specification:Calibri-Bold;inline-size:20.8252" font-weight="700" font-size="1.923" font-family="Calibri" white-space="pre" fill="#f30" stroke-width=".312"/><path d="M7.227 4.854a3.771 3.77 0 0 1 .14 4.56 3.771 3.77 0 0 1-4.36 1.354A3.771 3.77 0 0 1 .537 6.93a3.771 3.77 0 0 1 3.04-3.404" fill="none" stroke="#f30" stroke-width=".44"/></svg>